<svg width="480" height="480" viewBox="0 0 480 480" fill="none" xmlns="http://www.w3.org/2000/svg">
<rect width="480" height="480" fill="#F6F3EB" style="fill:#F6F3EB;fill:color(display-p3 0.9650 0.9530 0.9220);fill-opacity:1;"/>
<rect x="16.5" y="16.5" width="447" height="447" stroke="#0E0C0A" style="stroke:#0E0C0A;stroke:color(display-p3 0.0550 0.0470 0.0390);stroke-opacity:1;" stroke-width="5"/>
<rect x="24.75" y="24.75" width="430.5" height="430.5" stroke="#0E0C0A" style="stroke:#0E0C0A;stroke:color(display-p3 0.0550 0.0470 0.0390);stroke-opacity:1;" stroke-width="1.5"/>
<path d="M32.995 38.269L28.459 33.742L32.995 29.206L37.522 33.742L32.995 38.269Z" fill="#0E0C0A" style="fill:#0E0C0A;fill:color(display-p3 0.0550 0.0470 0.0390);fill-opacity:1;"/>
<path d="M444.995 38.269L440.459 33.742L444.995 29.206L449.522 33.742L444.995 38.269Z" fill="#0E0C0A" style="fill:#0E0C0A;fill:color(display-p3 0.0550 0.0470 0.0390);fill-opacity:1;"/>
<path d="M32.995 449.269L28.459 444.742L32.995 440.206L37.522 444.742L32.995 449.269Z" fill="#0E0C0A" style="fill:#0E0C0A;fill:color(display-p3 0.0550 0.0470 0.0390);fill-opacity:1;"/>
<path d="M444.995 449.269L440.459 444.742L444.995 440.206L449.522 444.742L444.995 449.269Z" fill="#0E0C0A" style="fill:#0E0C0A;fill:color(display-p3 0.0550 0.0470 0.0390);fill-opacity:1;"/>
<path d="M238.318 120C257.176 120 273.395 123.72 286.973 131.161C300.551 138.602 310.95 149.547 318.17 163.997C325.39 178.339 329 195.646 329 215.919C329 236.192 325.39 253.553 318.17 268.003C310.95 282.345 300.551 293.291 286.973 300.839C273.395 308.28 257.176 312 238.318 312H162.184C159.597 312 157.604 311.569 156.203 310.706C154.802 309.843 153.724 308.226 152.97 305.853C152.323 303.481 152 300.03 152 295.501C152 290.972 152.323 287.521 152.97 285.149C153.724 282.777 154.802 281.159 156.203 280.297C157.604 279.326 159.597 278.841 162.184 278.841H177.863V153.159H162.184C159.597 153.159 157.604 152.728 156.203 151.865C154.802 151.003 153.724 149.385 152.97 147.013C152.323 144.64 152 141.19 152 136.66C152 132.131 152.323 128.681 152.97 126.308C153.724 123.936 154.802 122.318 156.203 121.456C157.604 120.485 159.597 120 162.184 120H238.318ZM218.274 277.223H235.085C251.788 277.223 264.396 272.047 272.91 261.695C281.423 251.235 285.679 235.976 285.679 215.919C285.679 195.862 281.423 180.657 272.91 170.305C264.396 159.953 251.788 154.777 235.085 154.777H218.274V277.223Z" fill="#0E0C0A" style="fill:#0E0C0A;fill:color(display-p3 0.0550 0.0470 0.0390);fill-opacity:1;"/>
<rect x="28" y="59" width="424" height="1" fill="#0E0C0A" style="fill:#0E0C0A;fill:color(display-p3 0.0550 0.0470 0.0390);fill-opacity:1;"/>
<rect x="28" y="63" width="424" height="4" fill="#0E0C0A" style="fill:#0E0C0A;fill:color(display-p3 0.0550 0.0470 0.0390);fill-opacity:1;"/>
<rect x="28" y="366" width="424" height="4" fill="#0E0C0A" style="fill:#0E0C0A;fill:color(display-p3 0.0550 0.0470 0.0390);fill-opacity:1;"/>
<rect x="28" y="373" width="424" height="1" fill="#0E0C0A" style="fill:#0E0C0A;fill:color(display-p3 0.0550 0.0470 0.0390);fill-opacity:1;"/>
<path d="M158.578 388.453C158.828 388.453 159.021 388.5 159.156 388.594C159.292 388.677 159.391 388.833 159.453 389.062C159.526 389.292 159.562 389.625 159.562 390.062C159.562 390.5 159.526 390.833 159.453 391.062C159.391 391.292 159.292 391.448 159.156 391.531C159.021 391.615 158.828 391.656 158.578 391.656H154.891V403.797H158.891C159.141 403.797 159.333 403.844 159.469 403.938C159.604 404.021 159.703 404.177 159.766 404.406C159.839 404.635 159.875 404.969 159.875 405.406C159.875 405.844 159.839 406.177 159.766 406.406C159.703 406.635 159.604 406.792 159.469 406.875C159.333 406.958 159.141 407 158.891 407H146.984C146.734 407 146.542 406.958 146.406 406.875C146.271 406.792 146.167 406.635 146.094 406.406C146.031 406.177 146 405.844 146 405.406C146 404.969 146.031 404.635 146.094 404.406C146.167 404.177 146.271 404.021 146.406 403.938C146.542 403.844 146.734 403.797 146.984 403.797H150.984V391.656H147.297C147.047 391.656 146.854 391.615 146.719 391.531C146.583 391.448 146.479 391.292 146.406 391.062C146.344 390.833 146.312 390.5 146.312 390.062C146.312 389.625 146.344 389.292 146.406 389.062C146.479 388.833 146.583 388.677 146.719 388.594C146.854 388.5 147.047 388.453 147.297 388.453H158.578ZM248.641 388.453C248.891 388.453 249.083 388.5 249.219 388.594C249.354 388.677 249.453 388.833 249.516 389.062C249.589 389.292 249.625 389.625 249.625 390.062C249.625 390.5 249.589 390.833 249.516 391.062C249.453 391.292 249.354 391.448 249.219 391.531C249.083 391.615 248.891 391.656 248.641 391.656H247.75V406.312C247.75 406.656 247.62 406.911 247.359 407.078C247.099 407.255 246.656 407.344 246.031 407.344C245.552 407.344 245.193 407.276 244.953 407.141C244.724 407.016 244.521 406.807 244.344 406.516L237.312 394.875H237.25V403.797H238.984C239.234 403.797 239.427 403.844 239.562 403.938C239.698 404.021 239.797 404.177 239.859 404.406C239.932 404.635 239.969 404.969 239.969 405.406C239.969 405.844 239.932 406.177 239.859 406.406C239.797 406.635 239.698 406.792 239.562 406.875C239.427 406.958 239.234 407 238.984 407H232.672C232.422 407 232.229 406.958 232.094 406.875C231.958 406.792 231.854 406.635 231.781 406.406C231.719 406.177 231.688 405.844 231.688 405.406C231.688 404.969 231.719 404.635 231.781 404.406C231.854 404.177 231.958 404.021 232.094 403.938C232.229 403.844 232.422 403.797 232.672 403.797H233.719V391.656H232.672C232.422 391.656 232.229 391.615 232.094 391.531C231.958 391.448 231.854 391.292 231.781 391.062C231.719 390.833 231.688 390.5 231.688 390.062C231.688 389.625 231.719 389.292 231.781 389.062C231.854 388.833 231.958 388.677 232.094 388.594C232.229 388.5 232.422 388.453 232.672 388.453H236.797C237.214 388.453 237.505 388.594 237.672 388.875L244.156 399.609H244.219V391.656H242.781C242.531 391.656 242.339 391.615 242.203 391.531C242.068 391.448 241.964 391.292 241.891 391.062C241.828 390.833 241.797 390.5 241.797 390.062C241.797 389.625 241.828 389.292 241.891 389.062C241.964 388.833 242.068 388.677 242.203 388.594C242.339 388.5 242.531 388.453 242.781 388.453H248.641ZM334.188 388.109C334.833 388.109 335.276 388.182 335.516 388.328C335.755 388.474 335.875 388.729 335.875 389.094V395.094C335.875 395.448 335.714 395.703 335.391 395.859C335.078 396.005 334.552 396.078 333.812 396.078C333.323 396.078 332.943 396.047 332.672 395.984C332.411 395.911 332.229 395.807 332.125 395.672C332.021 395.536 331.969 395.344 331.969 395.094C331.969 394.052 331.682 393.219 331.109 392.594C330.547 391.969 329.74 391.656 328.688 391.656C327.24 391.656 326.141 392.177 325.391 393.219C324.641 394.26 324.266 395.76 324.266 397.719C324.266 399.656 324.661 401.156 325.453 402.219C326.255 403.271 327.385 403.797 328.844 403.797C329.75 403.797 330.62 403.677 331.453 403.438C332.286 403.188 333.193 402.812 334.172 402.312C334.339 402.229 334.495 402.188 334.641 402.188C335.13 402.188 335.536 402.62 335.859 403.484C336.005 403.88 336.078 404.234 336.078 404.547C336.078 405.078 335.839 405.458 335.359 405.688C333.13 406.792 330.906 407.344 328.688 407.344C326.979 407.344 325.474 406.953 324.172 406.172C322.87 405.391 321.859 404.276 321.141 402.828C320.432 401.37 320.078 399.667 320.078 397.719C320.078 395.781 320.427 394.089 321.125 392.641C321.823 391.182 322.786 390.062 324.016 389.281C325.255 388.5 326.656 388.109 328.219 388.109C330.042 388.109 331.396 388.766 332.281 390.078V389.094C332.281 388.74 332.432 388.49 332.734 388.344C333.036 388.188 333.521 388.109 334.188 388.109Z" fill="#0E0C0A" style="fill:#0E0C0A;fill:color(display-p3 0.0550 0.0470 0.0390);fill-opacity:1;"/>
<path d="M133.64 437.672C133.523 436.979 133.213 436.232 132.712 435.432C132.211 434.621 131.496 433.869 130.568 433.176C129.651 432.483 128.733 432.04 127.816 431.848V431.176C128.723 430.963 129.592 430.568 130.424 429.992C131.267 429.405 131.971 428.701 132.536 427.88C133.112 427.037 133.48 426.205 133.64 425.384H134.312C134.408 425.917 134.6 426.467 134.888 427.032C135.176 427.587 135.544 428.12 135.992 428.632C136.451 429.133 136.963 429.587 137.528 429.992C138.371 430.589 139.229 430.984 140.104 431.176V431.848C139.517 431.965 138.909 432.205 138.28 432.568C137.661 432.931 137.085 433.363 136.552 433.864C136.019 434.355 135.581 434.872 135.24 435.416C134.739 436.216 134.429 436.968 134.312 437.672H133.64ZM170.906 427.727C171.724 427.727 172.443 427.914 173.062 428.289C173.682 428.659 174.161 429.195 174.5 429.898C174.844 430.596 175.016 431.419 175.016 432.367C175.016 433.315 174.844 434.138 174.5 434.836C174.161 435.534 173.682 436.07 173.062 436.445C172.443 436.815 171.724 437 170.906 437H167.227C167.049 437 166.922 436.961 166.844 436.883C166.771 436.799 166.734 436.661 166.734 436.469C166.734 436.276 166.771 436.141 166.844 436.062C166.922 435.979 167.049 435.938 167.227 435.938H168.102V428.789H167.227C167.049 428.789 166.922 428.75 166.844 428.672C166.771 428.589 166.734 428.451 166.734 428.258C166.734 428.065 166.771 427.93 166.844 427.852C166.922 427.768 167.049 427.727 167.227 427.727H170.906ZM169.273 435.938H170.727C171.346 435.938 171.885 435.802 172.344 435.531C172.802 435.255 173.156 434.852 173.406 434.32C173.656 433.784 173.781 433.133 173.781 432.367C173.781 431.602 173.656 430.953 173.406 430.422C173.156 429.885 172.802 429.479 172.344 429.203C171.885 428.927 171.346 428.789 170.727 428.789H169.273V435.938ZM197.773 427.727C197.951 427.727 198.076 427.768 198.148 427.852C198.227 427.93 198.266 428.065 198.266 428.258C198.266 428.451 198.227 428.589 198.148 428.672C198.076 428.75 197.951 428.789 197.773 428.789H197.211V435.938H197.773C197.951 435.938 198.076 435.979 198.148 436.062C198.227 436.141 198.266 436.276 198.266 436.469C198.266 436.661 198.227 436.799 198.148 436.883C198.076 436.961 197.951 437 197.773 437H195.32C195.143 437 195.016 436.961 194.938 436.883C194.865 436.799 194.828 436.661 194.828 436.469C194.828 436.276 194.865 436.141 194.938 436.062C195.016 435.979 195.143 435.938 195.32 435.938H196.039V432.75H192.148V435.938H192.867C193.044 435.938 193.169 435.979 193.242 436.062C193.32 436.141 193.359 436.276 193.359 436.469C193.359 436.661 193.32 436.799 193.242 436.883C193.169 436.961 193.044 437 192.867 437H190.414C190.237 437 190.109 436.961 190.031 436.883C189.958 436.799 189.922 436.661 189.922 436.469C189.922 436.276 189.958 436.141 190.031 436.062C190.109 435.979 190.237 435.938 190.414 435.938H190.977V428.789H190.414C190.237 428.789 190.109 428.75 190.031 428.672C189.958 428.589 189.922 428.451 189.922 428.258C189.922 428.065 189.958 427.93 190.031 427.852C190.109 427.768 190.237 427.727 190.414 427.727H192.867C193.044 427.727 193.169 427.768 193.242 427.852C193.32 427.93 193.359 428.065 193.359 428.258C193.359 428.451 193.32 428.589 193.242 428.672C193.169 428.75 193.044 428.789 192.867 428.789H192.148V431.688H196.039V428.789H195.32C195.143 428.789 195.016 428.75 194.938 428.672C194.865 428.589 194.828 428.451 194.828 428.258C194.828 428.065 194.865 427.93 194.938 427.852C195.016 427.768 195.143 427.727 195.32 427.727H197.773ZM217.484 427.727C217.693 427.727 217.859 427.768 217.984 427.852C218.115 427.93 218.211 428.057 218.273 428.234L221.031 435.938H221.508C221.685 435.938 221.81 435.979 221.883 436.062C221.961 436.141 222 436.276 222 436.469C222 436.661 221.961 436.799 221.883 436.883C221.81 436.961 221.685 437 221.508 437H218.742C218.565 437 218.438 436.961 218.359 436.883C218.286 436.799 218.25 436.661 218.25 436.469C218.25 436.276 218.286 436.141 218.359 436.062C218.438 435.979 218.565 435.938 218.742 435.938H219.797L219.156 434.078H215.367L214.719 435.938H215.664C215.841 435.938 215.966 435.979 216.039 436.062C216.117 436.141 216.156 436.276 216.156 436.469C216.156 436.661 216.117 436.799 216.039 436.883C215.966 436.961 215.841 437 215.664 437H213.055C212.878 437 212.75 436.961 212.672 436.883C212.599 436.799 212.562 436.661 212.562 436.469C212.562 436.276 212.599 436.141 212.672 436.062C212.75 435.979 212.878 435.938 213.055 435.938H213.492L216.078 428.789H214.617C214.44 428.789 214.312 428.75 214.234 428.672C214.161 428.589 214.125 428.451 214.125 428.258C214.125 428.065 214.161 427.93 214.234 427.852C214.312 427.768 214.44 427.727 214.617 427.727H217.484ZM217.195 428.789L215.734 433.016H218.797L217.344 428.789H217.195ZM244.227 427.727C244.404 427.727 244.529 427.768 244.602 427.852C244.68 427.93 244.719 428.065 244.719 428.258C244.719 428.451 244.68 428.589 244.602 428.672C244.529 428.75 244.404 428.789 244.227 428.789H243.781V436.711C243.781 436.852 243.732 436.964 243.633 437.047C243.539 437.13 243.393 437.172 243.195 437.172C242.919 437.172 242.701 437.029 242.539 436.742L238.484 429.5H238.453V435.938H239.555C239.732 435.938 239.857 435.979 239.93 436.062C240.008 436.141 240.047 436.276 240.047 436.469C240.047 436.661 240.008 436.799 239.93 436.883C239.857 436.961 239.732 437 239.555 437H236.789C236.612 437 236.484 436.961 236.406 436.883C236.333 436.799 236.297 436.661 236.297 436.469C236.297 436.276 236.333 436.141 236.406 436.062C236.484 435.979 236.612 435.938 236.789 435.938H237.312V428.789H236.711C236.534 428.789 236.406 428.75 236.328 428.672C236.255 428.589 236.219 428.451 236.219 428.258C236.219 428.065 236.255 427.93 236.328 427.852C236.406 427.768 236.534 427.727 236.711 427.727H238.461C238.576 427.727 238.667 427.745 238.734 427.781C238.807 427.818 238.865 427.872 238.906 427.945L242.609 434.57H242.641V428.789H241.695C241.518 428.789 241.391 428.75 241.312 428.672C241.24 428.589 241.203 428.451 241.203 428.258C241.203 428.065 241.24 427.93 241.312 427.852C241.391 427.768 241.518 427.727 241.695 427.727H244.227ZM267.414 427.727C267.591 427.727 267.716 427.768 267.789 427.852C267.867 427.93 267.906 428.065 267.906 428.258C267.906 428.451 267.867 428.589 267.789 428.672C267.716 428.75 267.591 428.789 267.414 428.789H266.93V433.93C266.93 435.018 266.643 435.831 266.07 436.367C265.503 436.904 264.698 437.172 263.656 437.172C262.615 437.172 261.807 436.904 261.234 436.367C260.667 435.831 260.383 435.018 260.383 433.93V428.789H259.898C259.721 428.789 259.594 428.75 259.516 428.672C259.443 428.589 259.406 428.451 259.406 428.258C259.406 428.065 259.443 427.93 259.516 427.852C259.594 427.768 259.721 427.727 259.898 427.727H262.43C262.607 427.727 262.732 427.768 262.805 427.852C262.883 427.93 262.922 428.065 262.922 428.258C262.922 428.451 262.883 428.589 262.805 428.672C262.732 428.75 262.607 428.789 262.43 428.789H261.555V433.773C261.555 434.57 261.724 435.143 262.062 435.492C262.401 435.841 262.932 436.016 263.656 436.016C264.38 436.016 264.911 435.841 265.25 435.492C265.589 435.143 265.758 434.57 265.758 433.773V428.789H264.883C264.706 428.789 264.578 428.75 264.5 428.672C264.427 428.589 264.391 428.451 264.391 428.258C264.391 428.065 264.427 427.93 264.5 427.852C264.578 427.768 264.706 427.727 264.883 427.727H267.414ZM290.602 427.727C290.779 427.727 290.904 427.768 290.977 427.852C291.055 427.93 291.094 428.065 291.094 428.258C291.094 428.451 291.055 428.589 290.977 428.672C290.904 428.75 290.779 428.789 290.602 428.789H290.125L286.852 431.953C286.893 431.948 286.956 431.945 287.039 431.945C287.721 431.945 288.266 432.206 288.672 432.727C288.833 432.935 288.974 433.169 289.094 433.43C289.219 433.69 289.354 434.016 289.5 434.406C289.521 434.458 289.573 434.596 289.656 434.82C289.745 435.039 289.831 435.224 289.914 435.375C290.117 435.75 290.352 435.938 290.617 435.938H290.836C291.013 435.938 291.138 435.979 291.211 436.062C291.289 436.141 291.328 436.276 291.328 436.469C291.328 436.661 291.289 436.799 291.211 436.883C291.138 436.961 291.013 437 290.836 437H290.195C289.669 437 289.221 436.638 288.852 435.914C288.721 435.654 288.568 435.297 288.391 434.844C288.271 434.526 288.161 434.258 288.062 434.039C287.964 433.82 287.854 433.625 287.734 433.453C287.609 433.276 287.451 433.141 287.258 433.047C287.07 432.953 286.857 432.906 286.617 432.906C286.398 432.906 286.188 432.945 285.984 433.023C285.781 433.102 285.602 433.216 285.445 433.367L285.211 433.594V435.938H286.477C286.654 435.938 286.779 435.979 286.852 436.062C286.93 436.141 286.969 436.276 286.969 436.469C286.969 436.661 286.93 436.799 286.852 436.883C286.779 436.961 286.654 437 286.477 437H283.164C282.987 437 282.859 436.961 282.781 436.883C282.708 436.799 282.672 436.661 282.672 436.469C282.672 436.276 282.708 436.141 282.781 436.062C282.859 435.979 282.987 435.938 283.164 435.938H284.039V428.789H283.164C282.987 428.789 282.859 428.75 282.781 428.672C282.708 428.589 282.672 428.451 282.672 428.258C282.672 428.065 282.708 427.93 282.781 427.852C282.859 427.768 282.987 427.727 283.164 427.727H285.93C286.107 427.727 286.232 427.768 286.305 427.852C286.383 427.93 286.422 428.065 286.422 428.258C286.422 428.451 286.383 428.589 286.305 428.672C286.232 428.75 286.107 428.789 285.93 428.789H285.211V432.141L288.633 428.789H288.07C287.893 428.789 287.766 428.75 287.688 428.672C287.615 428.589 287.578 428.451 287.578 428.258C287.578 428.065 287.615 427.93 287.688 427.852C287.766 427.768 287.893 427.727 288.07 427.727H290.602ZM310.234 427.727C310.443 427.727 310.609 427.768 310.734 427.852C310.865 427.93 310.961 428.057 311.023 428.234L313.781 435.938H314.258C314.435 435.938 314.56 435.979 314.633 436.062C314.711 436.141 314.75 436.276 314.75 436.469C314.75 436.661 314.711 436.799 314.633 436.883C314.56 436.961 314.435 437 314.258 437H311.492C311.315 437 311.188 436.961 311.109 436.883C311.036 436.799 311 436.661 311 436.469C311 436.276 311.036 436.141 311.109 436.062C311.188 435.979 311.315 435.938 311.492 435.938H312.547L311.906 434.078H308.117L307.469 435.938H308.414C308.591 435.938 308.716 435.979 308.789 436.062C308.867 436.141 308.906 436.276 308.906 436.469C308.906 436.661 308.867 436.799 308.789 436.883C308.716 436.961 308.591 437 308.414 437H305.805C305.628 437 305.5 436.961 305.422 436.883C305.349 436.799 305.312 436.661 305.312 436.469C305.312 436.276 305.349 436.141 305.422 436.062C305.5 435.979 305.628 435.938 305.805 435.938H306.242L308.828 428.789H307.367C307.19 428.789 307.062 428.75 306.984 428.672C306.911 428.589 306.875 428.451 306.875 428.258C306.875 428.065 306.911 427.93 306.984 427.852C307.062 427.768 307.19 427.727 307.367 427.727H310.234ZM309.945 428.789L308.484 433.016H311.547L310.094 428.789H309.945ZM346.656 437.672C346.538 436.979 346.229 436.232 345.728 435.432C345.226 434.621 344.512 433.869 343.584 433.176C342.666 432.483 341.749 432.04 340.832 431.848V431.176C341.738 430.963 342.608 430.568 343.44 429.992C344.282 429.405 344.986 428.701 345.552 427.88C346.128 427.037 346.496 426.205 346.656 425.384H347.328C347.424 425.917 347.616 426.467 347.904 427.032C348.192 427.587 348.56 428.12 349.008 428.632C349.466 429.133 349.978 429.587 350.544 429.992C351.386 430.589 352.245 430.984 353.12 431.176V431.848C352.533 431.965 351.925 432.205 351.296 432.568C350.677 432.931 350.101 433.363 349.568 433.864C349.034 434.355 348.597 434.872 348.256 435.416C347.754 436.216 347.445 436.968 347.328 437.672H346.656Z" fill="#0E0C0A" style="fill:#0E0C0A;fill:color(display-p3 0.0550 0.0470 0.0390);fill-opacity:1;"/>
</svg>
