<svg width="920" height="460" viewBox="0 0 920 460" fill="none" xmlns="http://www.w3.org/2000/svg">
<rect width="920" height="460" fill="#F6F3EB"/>
<rect x="21" y="21" width="878" height="418" stroke="#0E0C0A" stroke-width="6"/>
<rect x="30.75" y="30.75" width="858.5" height="398.5" stroke="#0E0C0A" stroke-width="1.5"/>
<path d="M45.55 49.41L40.51 44.38L45.55 39.34L50.58 44.38L45.55 49.41Z" fill="#0E0C0A"/>
<path d="M874.55 49.41L869.51 44.38L874.55 39.34L879.58 44.38L874.55 49.41Z" fill="#0E0C0A"/>
<path d="M45.55 420.41L40.51 415.38L45.55 410.34L50.58 415.38L45.55 420.41Z" fill="#0E0C0A"/>
<path d="M874.55 419.41L869.51 414.38L874.55 409.34L879.58 414.38L874.55 419.41Z" fill="#0E0C0A"/>
<path d="M269.186 76.462C269.105 75.9853 268.893 75.472 268.548 74.922C268.203 74.3647 267.712 73.8477 267.074 73.371C266.443 72.8943 265.813 72.59 265.182 72.458V71.996C265.805 71.8493 266.403 71.578 266.975 71.182C267.554 70.7787 268.038 70.2947 268.427 69.73C268.823 69.1507 269.076 68.5787 269.186 68.014H269.648C269.714 68.3807 269.846 68.7583 270.044 69.147C270.242 69.5283 270.495 69.895 270.803 70.247C271.118 70.5917 271.47 70.9033 271.859 71.182C272.438 71.5927 273.029 71.864 273.63 71.996V72.458C273.227 72.5387 272.809 72.7037 272.376 72.953C271.951 73.2023 271.555 73.4993 271.188 73.844C270.821 74.1813 270.521 74.537 270.286 74.911C269.941 75.461 269.729 75.978 269.648 76.462H269.186ZM307.485 73.6904C307.632 73.6904 307.736 73.7173 307.796 73.771C307.857 73.8247 307.888 73.9142 307.888 74.0396V75.6348C307.888 75.7673 307.861 75.8621 307.807 75.9194C307.757 75.9731 307.671 76 307.549 76H302.748C302.626 76 302.538 75.9731 302.484 75.9194C302.434 75.8621 302.409 75.7673 302.409 75.6348C302.409 75.5023 302.434 75.4092 302.484 75.3555C302.538 75.2982 302.626 75.2695 302.748 75.2695H303.295V70.355H302.748C302.626 70.355 302.538 70.3281 302.484 70.2744C302.434 70.2171 302.409 70.1222 302.409 69.9897C302.409 69.8573 302.434 69.7642 302.484 69.7104C302.538 69.6532 302.626 69.6245 302.748 69.6245H307.442C307.564 69.6245 307.65 69.6532 307.7 69.7104C307.753 69.7642 307.78 69.8573 307.78 69.9897V71.354C307.78 71.4793 307.75 71.5688 307.689 71.6226C307.628 71.6763 307.524 71.7031 307.377 71.7031C307.231 71.7031 307.127 71.6763 307.066 71.6226C307.005 71.5688 306.975 71.4793 306.975 71.354V70.355H304.101V72.3477H305.487V71.8589C305.487 71.7336 305.514 71.644 305.567 71.5903C305.625 71.5366 305.725 71.5098 305.868 71.5098C306.011 71.5098 306.11 71.5366 306.164 71.5903C306.221 71.644 306.25 71.7336 306.25 71.8589V73.5669C306.25 73.6922 306.221 73.7817 306.164 73.8354C306.11 73.8892 306.011 73.916 305.868 73.916C305.725 73.916 305.625 73.8892 305.567 73.8354C305.514 73.7817 305.487 73.6922 305.487 73.5669V73.0781H304.101V75.2695H307.082V74.0396C307.082 73.9142 307.112 73.8247 307.173 73.771C307.234 73.7173 307.338 73.6904 307.485 73.6904ZM324.236 69.5063C324.383 69.5063 324.486 69.5332 324.547 69.5869C324.608 69.6406 324.639 69.7301 324.639 69.8555V71.0908C324.639 71.2161 324.608 71.3057 324.547 71.3594C324.486 71.4131 324.383 71.4399 324.236 71.4399C324.1 71.4399 324.007 71.3934 323.957 71.3003C323.785 70.9744 323.543 70.7274 323.231 70.5591C322.92 70.3872 322.565 70.3013 322.168 70.3013C321.774 70.3013 321.468 70.3926 321.25 70.5752C321.035 70.7578 320.927 71.0031 320.927 71.311C320.927 71.4578 320.965 71.5814 321.04 71.6816C321.115 71.7819 321.223 71.8678 321.362 71.9395C321.488 72.0039 321.634 72.0576 321.803 72.1006C321.971 72.14 322.197 72.1865 322.479 72.2402C322.787 72.3011 323.031 72.353 323.21 72.396C323.393 72.4354 323.572 72.4909 323.747 72.5625C324.105 72.7093 324.384 72.9152 324.585 73.1802C324.789 73.4416 324.891 73.7961 324.891 74.2437C324.891 74.616 324.803 74.9437 324.628 75.2266C324.452 75.5059 324.193 75.7243 323.849 75.8818C323.509 76.0394 323.099 76.1182 322.619 76.1182C322.261 76.1182 321.928 76.0537 321.62 75.9248C321.316 75.7923 321.051 75.6007 320.825 75.3501V75.769C320.825 75.8944 320.795 75.9839 320.734 76.0376C320.673 76.0913 320.569 76.1182 320.422 76.1182C320.276 76.1182 320.172 76.0913 320.111 76.0376C320.05 75.9839 320.02 75.8944 320.02 75.769V74.1577C320.02 74.0324 320.05 73.9429 320.111 73.8892C320.172 73.8354 320.276 73.8086 320.422 73.8086C320.576 73.8086 320.68 73.8838 320.734 74.0342C320.881 74.4495 321.113 74.7682 321.432 74.9902C321.754 75.2122 322.15 75.3232 322.619 75.3232C323.077 75.3232 323.428 75.2248 323.672 75.0278C323.919 74.8309 324.042 74.5695 324.042 74.2437C324.042 74.0181 323.985 73.8354 323.871 73.6958C323.76 73.5526 323.597 73.4344 323.382 73.3413C323.246 73.2804 323.097 73.2321 322.936 73.1963C322.775 73.1569 322.555 73.1086 322.275 73.0513C321.982 72.994 321.735 72.9403 321.534 72.8901C321.337 72.84 321.155 72.7773 320.986 72.7021C320.7 72.5732 320.476 72.3996 320.315 72.1812C320.157 71.9591 320.079 71.6691 320.079 71.311C320.079 70.9422 320.166 70.6217 320.342 70.3496C320.521 70.0775 320.768 69.8698 321.083 69.7266C321.402 69.5798 321.763 69.5063 322.168 69.5063C322.483 69.5063 322.787 69.5672 323.081 69.689C323.375 69.8107 323.625 69.9754 323.833 70.1831V69.8555C323.833 69.7301 323.863 69.6406 323.924 69.5869C323.985 69.5332 324.089 69.5063 324.236 69.5063ZM341.964 69.6245C342.086 69.6245 342.172 69.6532 342.222 69.7104C342.276 69.7642 342.303 69.8573 342.303 69.9897V72.0146C342.303 72.14 342.272 72.2295 342.211 72.2832C342.151 72.3369 342.047 72.3638 341.9 72.3638C341.753 72.3638 341.649 72.3369 341.588 72.2832C341.528 72.2295 341.497 72.14 341.497 72.0146V70.355H340.063V75.2695H341.331C341.452 75.2695 341.538 75.2982 341.588 75.3555C341.642 75.4092 341.669 75.5023 341.669 75.6348C341.669 75.7673 341.642 75.8621 341.588 75.9194C341.538 75.9731 341.452 76 341.331 76H337.99C337.868 76 337.78 75.9731 337.727 75.9194C337.676 75.8621 337.651 75.7673 337.651 75.6348C337.651 75.5023 337.676 75.4092 337.727 75.3555C337.78 75.2982 337.868 75.2695 337.99 75.2695H339.257V70.355H337.823V72.0146C337.823 72.14 337.793 72.2295 337.732 72.2832C337.671 72.3369 337.567 72.3638 337.42 72.3638C337.274 72.3638 337.17 72.3369 337.109 72.2832C337.048 72.2295 337.018 72.14 337.018 72.0146V69.9897C337.018 69.8573 337.043 69.7642 337.093 69.7104C337.146 69.6532 337.234 69.6245 337.356 69.6245H341.964ZM356.991 69.6245C357.134 69.6245 357.249 69.6532 357.335 69.7104C357.424 69.7642 357.491 69.8519 357.534 69.9736L359.43 75.2695H359.757C359.879 75.2695 359.965 75.2982 360.015 75.3555C360.069 75.4092 360.096 75.5023 360.096 75.6348C360.096 75.7673 360.069 75.8621 360.015 75.9194C359.965 75.9731 359.879 76 359.757 76H357.856C357.734 76 357.646 75.9731 357.593 75.9194C357.543 75.8621 357.518 75.7673 357.518 75.6348C357.518 75.5023 357.543 75.4092 357.593 75.3555C357.646 75.2982 357.734 75.2695 357.856 75.2695H358.581L358.141 73.9912H355.536L355.09 75.2695H355.74C355.861 75.2695 355.947 75.2982 355.998 75.3555C356.051 75.4092 356.078 75.5023 356.078 75.6348C356.078 75.7673 356.051 75.8621 355.998 75.9194C355.947 75.9731 355.861 76 355.74 76H353.946C353.824 76 353.736 75.9731 353.683 75.9194C353.632 75.8621 353.607 75.7673 353.607 75.6348C353.607 75.5023 353.632 75.4092 353.683 75.3555C353.736 75.2982 353.824 75.2695 353.946 75.2695H354.247L356.024 70.355H355.02C354.898 70.355 354.811 70.3281 354.757 70.2744C354.707 70.2171 354.682 70.1222 354.682 69.9897C354.682 69.8573 354.707 69.7642 354.757 69.7104C354.811 69.6532 354.898 69.6245 355.02 69.6245H356.991ZM356.792 70.355L355.788 73.2607H357.894L356.895 70.355H356.792ZM374.204 69.6245C374.623 69.6245 374.979 69.6961 375.273 69.8394C375.567 69.9826 375.787 70.1849 375.934 70.4463C376.084 70.7041 376.159 71.0067 376.159 71.354C376.159 71.6261 376.097 71.8678 375.971 72.0791C375.849 72.2868 375.674 72.4569 375.445 72.5894C375.824 72.7111 376.114 72.908 376.315 73.1802C376.519 73.4487 376.621 73.7817 376.621 74.1792C376.621 74.5552 376.541 74.8792 376.379 75.1514C376.218 75.4235 375.984 75.633 375.676 75.7798C375.368 75.9266 374.995 76 374.559 76H371.513C371.391 76 371.304 75.9731 371.25 75.9194C371.2 75.8621 371.175 75.7673 371.175 75.6348C371.175 75.5023 371.2 75.4092 371.25 75.3555C371.304 75.2982 371.391 75.2695 371.513 75.2695H372.168V70.355H371.513C371.391 70.355 371.304 70.3281 371.25 70.2744C371.2 70.2171 371.175 70.1222 371.175 69.9897C371.175 69.8573 371.2 69.7642 371.25 69.7104C371.304 69.6532 371.391 69.6245 371.513 69.6245H374.204ZM372.974 72.3423H374.086C374.498 72.3423 374.809 72.2563 375.021 72.0845C375.232 71.9126 375.337 71.6691 375.337 71.354C375.337 71.0246 375.234 70.7757 375.026 70.6074C374.818 70.4391 374.505 70.355 374.086 70.355H372.974V72.3423ZM372.974 75.2695H374.397C374.838 75.2695 375.176 75.1746 375.413 74.9849C375.653 74.7951 375.772 74.5265 375.772 74.1792C375.772 73.4416 375.323 73.0728 374.424 73.0728H372.974V75.2695ZM391.68 69.6245C391.802 69.6245 391.888 69.6532 391.938 69.7104C391.992 69.7642 392.019 69.8573 392.019 69.9897C392.019 70.1222 391.992 70.2171 391.938 70.2744C391.888 70.3281 391.802 70.355 391.68 70.355H390.38V75.2695H393.039V73.5024C393.039 73.3771 393.069 73.2876 393.13 73.2339C393.191 73.1802 393.295 73.1533 393.442 73.1533C393.589 73.1533 393.693 73.1802 393.753 73.2339C393.814 73.2876 393.845 73.3771 393.845 73.5024V75.6348C393.845 75.7673 393.818 75.8621 393.764 75.9194C393.714 75.9731 393.628 76 393.506 76H388.705C388.583 76 388.495 75.9731 388.441 75.9194C388.391 75.8621 388.366 75.7673 388.366 75.6348C388.366 75.5023 388.391 75.4092 388.441 75.3555C388.495 75.2982 388.583 75.2695 388.705 75.2695H389.575V70.355H388.705C388.583 70.355 388.495 70.3281 388.441 70.2744C388.391 70.2171 388.366 70.1222 388.366 69.9897C388.366 69.8573 388.391 69.7642 388.441 69.7104C388.495 69.6532 388.583 69.6245 388.705 69.6245H391.68ZM410.204 69.6245C410.325 69.6245 410.411 69.6532 410.461 69.7104C410.515 69.7642 410.542 69.8573 410.542 69.9897C410.542 70.1222 410.515 70.2171 410.461 70.2744C410.411 70.3281 410.325 70.355 410.204 70.355H408.829V75.2695H410.311C410.433 75.2695 410.519 75.2982 410.569 75.3555C410.623 75.4092 410.649 75.5023 410.649 75.6348C410.649 75.7673 410.623 75.8621 410.569 75.9194C410.519 75.9731 410.433 76 410.311 76H406.541C406.419 76 406.331 75.9731 406.277 75.9194C406.227 75.8621 406.202 75.7673 406.202 75.6348C406.202 75.5023 406.227 75.4092 406.277 75.3555C406.331 75.2982 406.419 75.2695 406.541 75.2695H408.023V70.355H406.648C406.526 70.355 406.438 70.3281 406.385 70.2744C406.335 70.2171 406.31 70.1222 406.31 69.9897C406.31 69.8573 406.335 69.7642 406.385 69.7104C406.438 69.6532 406.526 69.6245 406.648 69.6245H410.204ZM427.384 69.5063C427.531 69.5063 427.635 69.5332 427.696 69.5869C427.757 69.6406 427.787 69.7301 427.787 69.8555V71.0908C427.787 71.2161 427.757 71.3057 427.696 71.3594C427.635 71.4131 427.531 71.4399 427.384 71.4399C427.248 71.4399 427.155 71.3934 427.105 71.3003C426.933 70.9744 426.691 70.7274 426.38 70.5591C426.068 70.3872 425.714 70.3013 425.316 70.3013C424.923 70.3013 424.616 70.3926 424.398 70.5752C424.183 70.7578 424.076 71.0031 424.076 71.311C424.076 71.4578 424.113 71.5814 424.188 71.6816C424.264 71.7819 424.371 71.8678 424.511 71.9395C424.636 72.0039 424.783 72.0576 424.951 72.1006C425.119 72.14 425.345 72.1865 425.628 72.2402C425.936 72.3011 426.179 72.353 426.358 72.396C426.541 72.4354 426.72 72.4909 426.896 72.5625C427.254 72.7093 427.533 72.9152 427.733 73.1802C427.938 73.4416 428.04 73.7961 428.04 74.2437C428.04 74.616 427.952 74.9437 427.776 75.2266C427.601 75.5059 427.341 75.7243 426.998 75.8818C426.657 76.0394 426.247 76.1182 425.768 76.1182C425.41 76.1182 425.076 76.0537 424.769 75.9248C424.464 75.7923 424.199 75.6007 423.974 75.3501V75.769C423.974 75.8944 423.943 75.9839 423.882 76.0376C423.821 76.0913 423.718 76.1182 423.571 76.1182C423.424 76.1182 423.32 76.0913 423.259 76.0376C423.198 75.9839 423.168 75.8944 423.168 75.769V74.1577C423.168 74.0324 423.198 73.9429 423.259 73.8892C423.32 73.8354 423.424 73.8086 423.571 73.8086C423.725 73.8086 423.829 73.8838 423.882 74.0342C424.029 74.4495 424.262 74.7682 424.581 74.9902C424.903 75.2122 425.299 75.3232 425.768 75.3232C426.226 75.3232 426.577 75.2248 426.82 75.0278C427.067 74.8309 427.191 74.5695 427.191 74.2437C427.191 74.0181 427.134 73.8354 427.019 73.6958C426.908 73.5526 426.745 73.4344 426.53 73.3413C426.394 73.2804 426.246 73.2321 426.084 73.1963C425.923 73.1569 425.703 73.1086 425.424 73.0513C425.13 72.994 424.883 72.9403 424.683 72.8901C424.486 72.84 424.303 72.7773 424.135 72.7021C423.848 72.5732 423.625 72.3996 423.463 72.1812C423.306 71.9591 423.227 71.6691 423.227 71.311C423.227 70.9422 423.315 70.6217 423.49 70.3496C423.669 70.0775 423.916 69.8698 424.231 69.7266C424.55 69.5798 424.912 69.5063 425.316 69.5063C425.632 69.5063 425.936 69.5672 426.229 69.689C426.523 69.8107 426.774 69.9754 426.981 70.1831V69.8555C426.981 69.7301 427.012 69.6406 427.073 69.5869C427.134 69.5332 427.237 69.5063 427.384 69.5063ZM445.338 69.6245C445.46 69.6245 445.546 69.6532 445.596 69.7104C445.65 69.7642 445.677 69.8573 445.677 69.9897C445.677 70.1222 445.65 70.2171 445.596 70.2744C445.546 70.3281 445.46 70.355 445.338 70.355H444.952V75.2695H445.338C445.46 75.2695 445.546 75.2982 445.596 75.3555C445.65 75.4092 445.677 75.5023 445.677 75.6348C445.677 75.7673 445.65 75.8621 445.596 75.9194C445.546 75.9731 445.46 76 445.338 76H443.652C443.53 76 443.442 75.9731 443.389 75.9194C443.339 75.8621 443.313 75.7673 443.313 75.6348C443.313 75.5023 443.339 75.4092 443.389 75.3555C443.442 75.2982 443.53 75.2695 443.652 75.2695H444.146V73.0781H441.471V75.2695H441.965C442.087 75.2695 442.173 75.2982 442.223 75.3555C442.277 75.4092 442.304 75.5023 442.304 75.6348C442.304 75.7673 442.277 75.8621 442.223 75.9194C442.173 75.9731 442.087 76 441.965 76H440.279C440.157 76 440.069 75.9731 440.016 75.9194C439.965 75.8621 439.94 75.7673 439.94 75.6348C439.94 75.5023 439.965 75.4092 440.016 75.3555C440.069 75.2982 440.157 75.2695 440.279 75.2695H440.666V70.355H440.279C440.157 70.355 440.069 70.3281 440.016 70.2744C439.965 70.2171 439.94 70.1222 439.94 69.9897C439.94 69.8573 439.965 69.7642 440.016 69.7104C440.069 69.6532 440.157 69.6245 440.279 69.6245H441.965C442.087 69.6245 442.173 69.6532 442.223 69.7104C442.277 69.7642 442.304 69.8573 442.304 69.9897C442.304 70.1222 442.277 70.2171 442.223 70.2744C442.173 70.3281 442.087 70.355 441.965 70.355H441.471V72.3477H444.146V70.355H443.652C443.53 70.355 443.442 70.3281 443.389 70.2744C443.339 70.2171 443.313 70.1222 443.313 69.9897C443.313 69.8573 443.339 69.7642 443.389 69.7104C443.442 69.6532 443.53 69.6245 443.652 69.6245H445.338ZM462.208 73.6904C462.354 73.6904 462.458 73.7173 462.519 73.771C462.58 73.8247 462.61 73.9142 462.61 74.0396V75.6348C462.61 75.7673 462.583 75.8621 462.53 75.9194C462.48 75.9731 462.394 76 462.272 76H457.47C457.348 76 457.261 75.9731 457.207 75.9194C457.157 75.8621 457.132 75.7673 457.132 75.6348C457.132 75.5023 457.157 75.4092 457.207 75.3555C457.261 75.2982 457.348 75.2695 457.47 75.2695H458.018V70.355H457.47C457.348 70.355 457.261 70.3281 457.207 70.2744C457.157 70.2171 457.132 70.1222 457.132 69.9897C457.132 69.8573 457.157 69.7642 457.207 69.7104C457.261 69.6532 457.348 69.6245 457.47 69.6245H462.165C462.286 69.6245 462.372 69.6532 462.422 69.7104C462.476 69.7642 462.503 69.8573 462.503 69.9897V71.354C462.503 71.4793 462.472 71.5688 462.412 71.6226C462.351 71.6763 462.247 71.7031 462.1 71.7031C461.953 71.7031 461.849 71.6763 461.789 71.6226C461.728 71.5688 461.697 71.4793 461.697 71.354V70.355H458.824V72.3477H460.209V71.8589C460.209 71.7336 460.236 71.644 460.29 71.5903C460.347 71.5366 460.448 71.5098 460.591 71.5098C460.734 71.5098 460.833 71.5366 460.886 71.5903C460.944 71.644 460.972 71.7336 460.972 71.8589V73.5669C460.972 73.6922 460.944 73.7817 460.886 73.8354C460.833 73.8892 460.734 73.916 460.591 73.916C460.448 73.916 460.347 73.8892 460.29 73.8354C460.236 73.7817 460.209 73.6922 460.209 73.5669V73.0781H458.824V75.2695H461.805V74.0396C461.805 73.9142 461.835 73.8247 461.896 73.771C461.957 73.7173 462.061 73.6904 462.208 73.6904ZM477.191 69.6245C477.754 69.6245 478.248 69.7534 478.674 70.0112C479.1 70.2655 479.429 70.6343 479.662 71.1177C479.898 71.5975 480.017 72.1632 480.017 72.8149C480.017 73.4666 479.898 74.0324 479.662 74.5122C479.429 74.992 479.1 75.3608 478.674 75.6187C478.248 75.8729 477.754 76 477.191 76H474.662C474.54 76 474.452 75.9731 474.398 75.9194C474.348 75.8621 474.323 75.7673 474.323 75.6348C474.323 75.5023 474.348 75.4092 474.398 75.3555C474.452 75.2982 474.54 75.2695 474.662 75.2695H475.263V70.355H474.662C474.54 70.355 474.452 70.3281 474.398 70.2744C474.348 70.2171 474.323 70.1222 474.323 69.9897C474.323 69.8573 474.348 69.7642 474.398 69.7104C474.452 69.6532 474.54 69.6245 474.662 69.6245H477.191ZM476.069 75.2695H477.068C477.494 75.2695 477.865 75.1764 478.18 74.9902C478.495 74.8005 478.738 74.5229 478.91 74.1577C479.082 73.7889 479.168 73.3413 479.168 72.8149C479.168 72.2886 479.082 71.8428 478.91 71.4775C478.738 71.1087 478.495 70.8294 478.18 70.6396C477.865 70.4499 477.494 70.355 477.068 70.355H476.069V75.2695ZM511.574 72.0522C511.832 72.0522 512.016 72.0791 512.127 72.1328C512.242 72.1829 512.299 72.2689 512.299 72.3906V73.3789C512.299 73.5007 512.242 73.5884 512.127 73.6421C512.016 73.6922 511.832 73.7173 511.574 73.7173C511.316 73.7173 511.13 73.6922 511.016 73.6421C510.905 73.5884 510.849 73.5007 510.849 73.3789V72.3906C510.849 72.2689 510.905 72.1829 511.016 72.1328C511.13 72.0791 511.316 72.0522 511.574 72.0522ZM548.594 69.6245C548.716 69.6245 548.802 69.6532 548.852 69.7104C548.906 69.7642 548.933 69.8573 548.933 69.9897C548.933 70.1222 548.906 70.2171 548.852 70.2744C548.802 70.3281 548.716 70.355 548.594 70.355H548.326L548.465 75.2695H548.755C548.877 75.2695 548.963 75.2982 549.013 75.3555C549.067 75.4092 549.094 75.5023 549.094 75.6348C549.094 75.7673 549.067 75.8621 549.013 75.9194C548.963 75.9731 548.877 76 548.755 76H547.069C546.947 76 546.859 75.9731 546.806 75.9194C546.756 75.8621 546.73 75.7673 546.73 75.6348C546.73 75.5023 546.756 75.4092 546.806 75.3555C546.859 75.2982 546.947 75.2695 547.069 75.2695H547.665L547.547 70.8706L546.451 73.9321C546.405 74.0575 546.342 74.147 546.263 74.2007C546.188 74.2544 546.086 74.2812 545.957 74.2812C545.828 74.2812 545.724 74.2544 545.646 74.2007C545.57 74.147 545.509 74.0575 545.463 73.9321L544.362 70.8706L544.249 75.2695H544.845C544.967 75.2695 545.053 75.2982 545.103 75.3555C545.157 75.4092 545.184 75.5023 545.184 75.6348C545.184 75.7673 545.157 75.8621 545.103 75.9194C545.053 75.9731 544.967 76 544.845 76H543.159C543.037 76 542.949 75.9731 542.896 75.9194C542.845 75.8621 542.82 75.7673 542.82 75.6348C542.82 75.5023 542.845 75.4092 542.896 75.3555C542.949 75.2982 543.037 75.2695 543.159 75.2695H543.449L543.583 70.355H543.32C543.198 70.355 543.11 70.3281 543.057 70.2744C543.007 70.2171 542.981 70.1222 542.981 69.9897C542.981 69.8573 543.007 69.7642 543.057 69.7104C543.11 69.6532 543.198 69.6245 543.32 69.6245H544.453C544.539 69.6245 544.607 69.6388 544.657 69.6675C544.707 69.6961 544.743 69.7409 544.765 69.8018L545.957 73.0728L547.144 69.8018C547.183 69.6836 547.289 69.6245 547.461 69.6245H548.594ZM565.786 69.6245C565.907 69.6245 565.993 69.6532 566.043 69.7104C566.097 69.7642 566.124 69.8573 566.124 69.9897C566.124 70.1222 566.097 70.2171 566.043 70.2744C565.993 70.3281 565.907 70.355 565.786 70.355H565.517L565.657 75.2695H565.947C566.069 75.2695 566.154 75.2982 566.205 75.3555C566.258 75.4092 566.285 75.5023 566.285 75.6348C566.285 75.7673 566.258 75.8621 566.205 75.9194C566.154 75.9731 566.069 76 565.947 76H564.26C564.139 76 564.051 75.9731 563.997 75.9194C563.947 75.8621 563.922 75.7673 563.922 75.6348C563.922 75.5023 563.947 75.4092 563.997 75.3555C564.051 75.2982 564.139 75.2695 564.26 75.2695H564.856L564.738 70.8706L563.643 73.9321C563.596 74.0575 563.533 74.147 563.455 74.2007C563.379 74.2544 563.277 74.2812 563.148 74.2812C563.02 74.2812 562.916 74.2544 562.837 74.2007C562.762 74.147 562.701 74.0575 562.654 73.9321L561.553 70.8706L561.44 75.2695H562.037C562.158 75.2695 562.244 75.2982 562.294 75.3555C562.348 75.4092 562.375 75.5023 562.375 75.6348C562.375 75.7673 562.348 75.8621 562.294 75.9194C562.244 75.9731 562.158 76 562.037 76H560.35C560.228 76 560.141 75.9731 560.087 75.9194C560.037 75.8621 560.012 75.7673 560.012 75.6348C560.012 75.5023 560.037 75.4092 560.087 75.3555C560.141 75.2982 560.228 75.2695 560.35 75.2695H560.64L560.774 70.355H560.511C560.389 70.355 560.302 70.3281 560.248 70.2744C560.198 70.2171 560.173 70.1222 560.173 69.9897C560.173 69.8573 560.198 69.7642 560.248 69.7104C560.302 69.6532 560.389 69.6245 560.511 69.6245H561.645C561.73 69.6245 561.799 69.6388 561.849 69.6675C561.899 69.6961 561.935 69.7409 561.956 69.8018L563.148 73.0728L564.335 69.8018C564.375 69.6836 564.48 69.6245 564.652 69.6245H565.786ZM582.87 69.6245C582.991 69.6245 583.077 69.6532 583.127 69.7104C583.181 69.7642 583.208 69.8573 583.208 69.9897C583.208 70.1222 583.181 70.2171 583.127 70.2744C583.077 70.3281 582.991 70.355 582.87 70.355H582.521L580.861 72.686L582.719 75.2695H583.031C583.153 75.2695 583.238 75.2982 583.289 75.3555C583.342 75.4092 583.369 75.5023 583.369 75.6348C583.369 75.7673 583.342 75.8621 583.289 75.9194C583.238 75.9731 583.153 76 583.031 76H581.129C581.008 76 580.92 75.9731 580.866 75.9194C580.816 75.8621 580.791 75.7673 580.791 75.6348C580.791 75.5023 580.816 75.4092 580.866 75.3555C580.92 75.2982 581.008 75.2695 581.129 75.2695H581.715L580.345 73.3091L578.943 75.2695H579.389C579.511 75.2695 579.597 75.2982 579.647 75.3555C579.701 75.4092 579.728 75.5023 579.728 75.6348C579.728 75.7673 579.701 75.8621 579.647 75.9194C579.597 75.9731 579.511 76 579.389 76H577.649C577.527 76 577.439 75.9731 577.386 75.9194C577.336 75.8621 577.311 75.7673 577.311 75.6348C577.311 75.5023 577.336 75.4092 577.386 75.3555C577.439 75.2982 577.527 75.2695 577.649 75.2695H577.982L579.856 72.6753L578.181 70.355H577.81C577.688 70.355 577.601 70.3281 577.547 70.2744C577.497 70.2171 577.472 70.1222 577.472 69.9897C577.472 69.8573 577.497 69.7642 577.547 69.7104C577.601 69.6532 577.688 69.6245 577.81 69.6245H579.658C579.779 69.6245 579.865 69.6532 579.916 69.7104C579.969 69.7642 579.996 69.8573 579.996 69.9897C579.996 70.1222 579.969 70.2171 579.916 70.2744C579.865 70.3281 579.779 70.355 579.658 70.355H579.18L580.367 72.0522L581.559 70.355H581.237C581.115 70.355 581.027 70.3281 580.974 70.2744C580.924 70.2171 580.898 70.1222 580.898 69.9897C580.898 69.8573 580.924 69.7642 580.974 69.7104C581.027 69.6532 581.115 69.6245 581.237 69.6245H582.87ZM599.309 69.6245C599.431 69.6245 599.517 69.6532 599.567 69.7104C599.621 69.7642 599.647 69.8573 599.647 69.9897C599.647 70.1222 599.621 70.2171 599.567 70.2744C599.517 70.3281 599.431 70.355 599.309 70.355H597.934V75.2695H599.417C599.538 75.2695 599.624 75.2982 599.674 75.3555C599.728 75.4092 599.755 75.5023 599.755 75.6348C599.755 75.7673 599.728 75.8621 599.674 75.9194C599.624 75.9731 599.538 76 599.417 76H595.646C595.524 76 595.437 75.9731 595.383 75.9194C595.333 75.8621 595.308 75.7673 595.308 75.6348C595.308 75.5023 595.333 75.4092 595.383 75.3555C595.437 75.2982 595.524 75.2695 595.646 75.2695H597.128V70.355H595.753C595.632 70.355 595.544 70.3281 595.49 70.2744C595.44 70.2171 595.415 70.1222 595.415 69.9897C595.415 69.8573 595.44 69.7642 595.49 69.7104C595.544 69.6532 595.632 69.6245 595.753 69.6245H599.309ZM617.252 69.6245C617.374 69.6245 617.46 69.6532 617.51 69.7104C617.564 69.7642 617.591 69.8573 617.591 69.9897C617.591 70.1222 617.564 70.2171 617.51 70.2744C617.46 70.3281 617.374 70.355 617.252 70.355H616.903L615.244 72.686L617.102 75.2695H617.414C617.535 75.2695 617.621 75.2982 617.671 75.3555C617.725 75.4092 617.752 75.5023 617.752 75.6348C617.752 75.7673 617.725 75.8621 617.671 75.9194C617.621 75.9731 617.535 76 617.414 76H615.512C615.39 76 615.303 75.9731 615.249 75.9194C615.199 75.8621 615.174 75.7673 615.174 75.6348C615.174 75.5023 615.199 75.4092 615.249 75.3555C615.303 75.2982 615.39 75.2695 615.512 75.2695H616.098L614.728 73.3091L613.326 75.2695H613.772C613.894 75.2695 613.98 75.2982 614.03 75.3555C614.083 75.4092 614.11 75.5023 614.11 75.6348C614.11 75.7673 614.083 75.8621 614.03 75.9194C613.98 75.9731 613.894 76 613.772 76H612.032C611.91 76 611.822 75.9731 611.769 75.9194C611.718 75.8621 611.693 75.7673 611.693 75.6348C611.693 75.5023 611.718 75.4092 611.769 75.3555C611.822 75.2982 611.91 75.2695 612.032 75.2695H612.365L614.239 72.6753L612.563 70.355H612.193C612.071 70.355 611.983 70.3281 611.93 70.2744C611.88 70.2171 611.854 70.1222 611.854 69.9897C611.854 69.8573 611.88 69.7642 611.93 69.7104C611.983 69.6532 612.071 69.6245 612.193 69.6245H614.041C614.162 69.6245 614.248 69.6532 614.298 69.7104C614.352 69.7642 614.379 69.8573 614.379 69.9897C614.379 70.1222 614.352 70.2171 614.298 70.2744C614.248 70.3281 614.162 70.355 614.041 70.355H613.562L614.75 72.0522L615.942 70.355H615.62C615.498 70.355 615.41 70.3281 615.356 70.2744C615.306 70.2171 615.281 70.1222 615.281 69.9897C615.281 69.8573 615.306 69.7642 615.356 69.7104C615.41 69.6532 615.498 69.6245 615.62 69.6245H617.252ZM650.373 76.462C650.292 75.9853 650.079 75.472 649.735 74.922C649.39 74.3647 648.899 73.8477 648.261 73.371C647.63 72.8943 646.999 72.59 646.369 72.458V71.996C646.992 71.8493 647.59 71.578 648.162 71.182C648.741 70.7787 649.225 70.2947 649.614 69.73C650.01 69.1507 650.263 68.5787 650.373 68.014H650.835C650.901 68.3807 651.033 68.7583 651.231 69.147C651.429 69.5283 651.682 69.895 651.99 70.247C652.305 70.5917 652.657 70.9033 653.046 71.182C653.625 71.5927 654.215 71.864 654.817 71.996V72.458C654.413 72.5387 653.995 72.7037 653.563 72.953C653.137 73.2023 652.741 73.4993 652.375 73.844C652.008 74.1813 651.707 74.537 651.473 74.911C651.128 75.461 650.915 75.978 650.835 76.462H650.373Z" fill="#0E0C0A"/>
<rect x="58" y="107" width="804" height="1" fill="#0E0C0A"/>
<rect x="58" y="112" width="804" height="5" fill="#0E0C0A"/>
<path d="M174.5 155.812C181.792 155.812 188.062 157.25 193.312 160.125C198.562 163 202.583 167.229 205.375 172.812C208.167 178.354 209.562 185.042 209.562 192.875C209.562 200.708 208.167 207.417 205.375 213C202.583 218.542 198.562 222.771 193.312 225.688C188.062 228.562 181.792 230 174.5 230H145.062C144.062 230 143.292 229.833 142.75 229.5C142.208 229.167 141.792 228.542 141.5 227.625C141.25 226.708 141.125 225.375 141.125 223.625C141.125 221.875 141.25 220.542 141.5 219.625C141.792 218.708 142.208 218.083 142.75 217.75C143.292 217.375 144.062 217.188 145.062 217.188H151.125V168.625H145.062C144.062 168.625 143.292 168.458 142.75 168.125C142.208 167.792 141.792 167.167 141.5 166.25C141.25 165.333 141.125 164 141.125 162.25C141.125 160.5 141.25 159.167 141.5 158.25C141.792 157.333 142.208 156.708 142.75 156.375C143.292 156 144.062 155.812 145.062 155.812H174.5ZM166.75 216.562H173.25C179.708 216.562 184.583 214.562 187.875 210.562C191.167 206.521 192.812 200.625 192.812 192.875C192.812 185.125 191.167 179.25 187.875 175.25C184.583 171.25 179.708 169.25 173.25 169.25H166.75V216.562ZM301.812 155.812C302.812 155.812 303.583 156 304.125 156.375C304.667 156.708 305.062 157.333 305.312 158.25C305.604 159.167 305.75 160.5 305.75 162.25C305.75 164 305.604 165.333 305.312 166.25C305.062 167.167 304.667 167.792 304.125 168.125C303.583 168.458 302.812 168.625 301.812 168.625H298.25V217.188H301.812C302.812 217.188 303.583 217.375 304.125 217.75C304.667 218.083 305.062 218.708 305.312 219.625C305.604 220.542 305.75 221.875 305.75 223.625C305.75 225.375 305.604 226.708 305.312 227.625C305.062 228.542 304.667 229.167 304.125 229.5C303.583 229.833 302.812 230 301.812 230H278.438C277.438 230 276.667 229.833 276.125 229.5C275.583 229.167 275.167 228.542 274.875 227.625C274.625 226.708 274.5 225.375 274.5 223.625C274.5 221.875 274.625 220.542 274.875 219.625C275.167 218.708 275.583 218.083 276.125 217.75C276.667 217.375 277.438 217.188 278.438 217.188H282.625V198.5H258.375V217.188H262.562C263.562 217.188 264.333 217.375 264.875 217.75C265.417 218.083 265.812 218.708 266.062 219.625C266.354 220.542 266.5 221.875 266.5 223.625C266.5 225.375 266.354 226.708 266.062 227.625C265.812 228.542 265.417 229.167 264.875 229.5C264.333 229.833 263.562 230 262.562 230H239.188C238.188 230 237.417 229.833 236.875 229.5C236.333 229.167 235.917 228.542 235.625 227.625C235.375 226.708 235.25 225.375 235.25 223.625C235.25 221.875 235.375 220.542 235.625 219.625C235.917 218.708 236.333 218.083 236.875 217.75C237.417 217.375 238.188 217.188 239.188 217.188H242.75V168.625H239.188C238.188 168.625 237.417 168.458 236.875 168.125C236.333 167.792 235.917 167.167 235.625 166.25C235.375 165.333 235.25 164 235.25 162.25C235.25 160.5 235.375 159.167 235.625 158.25C235.917 157.333 236.333 156.708 236.875 156.375C237.417 156 238.188 155.812 239.188 155.812H262.562C263.562 155.812 264.333 156 264.875 156.375C265.417 156.708 265.812 157.333 266.062 158.25C266.354 159.167 266.5 160.5 266.5 162.25C266.5 164 266.354 165.333 266.062 166.25C265.812 167.167 265.417 167.792 264.875 168.125C264.333 168.458 263.562 168.625 262.562 168.625H258.375V185.062H282.625V168.625H278.438C277.438 168.625 276.667 168.458 276.125 168.125C275.583 167.792 275.167 167.167 274.875 166.25C274.625 165.333 274.5 164 274.5 162.25C274.5 160.5 274.625 159.167 274.875 158.25C275.167 157.333 275.583 156.708 276.125 156.375C276.667 156 277.438 155.812 278.438 155.812H301.812ZM370.438 155.812C372.104 155.812 373.458 156.146 374.5 156.812C375.542 157.438 376.292 158.458 376.75 159.875L394.875 217.188H400.312C401.312 217.188 402.083 217.354 402.625 217.688C403.167 218.021 403.562 218.646 403.812 219.562C404.104 220.479 404.25 221.812 404.25 223.562C404.25 225.312 404.104 226.646 403.812 227.562C403.562 228.479 403.167 229.125 402.625 229.5C402.083 229.833 401.312 230 400.312 230H373.812C372.812 230 372.042 229.833 371.5 229.5C370.958 229.125 370.542 228.479 370.25 227.562C370 226.646 369.875 225.312 369.875 223.562C369.875 221.812 370 220.479 370.25 219.562C370.542 218.646 370.958 218.021 371.5 217.688C372.042 217.354 372.812 217.188 373.812 217.188H379.188L376.375 208.125H353.625L350.812 217.188H355.438C356.438 217.188 357.208 217.354 357.75 217.688C358.292 218.021 358.688 218.646 358.938 219.562C359.229 220.479 359.375 221.812 359.375 223.562C359.375 225.312 359.229 226.646 358.938 227.562C358.688 228.479 358.292 229.125 357.75 229.5C357.208 229.833 356.438 230 355.438 230H330.188C329.188 230 328.417 229.833 327.875 229.5C327.333 229.125 326.938 228.479 326.688 227.562C326.396 226.646 326.25 225.312 326.25 223.562C326.25 221.812 326.396 220.479 326.688 219.562C326.938 218.646 327.333 218.021 327.875 217.688C328.417 217.354 329.188 217.188 330.188 217.188H335.438L351.25 168.625H340.812C339.812 168.625 339.042 168.458 338.5 168.125C337.958 167.75 337.542 167.104 337.25 166.188C337 165.271 336.875 163.938 336.875 162.188C336.875 160.438 337 159.104 337.25 158.188C337.542 157.271 337.958 156.646 338.5 156.312C339.042 155.979 339.812 155.812 340.812 155.812H370.438ZM364.938 168.625L357.25 195.312H372.812L365.312 168.625H364.938ZM492.562 155.812C493.562 155.812 494.333 156 494.875 156.375C495.417 156.708 495.812 157.333 496.062 158.25C496.354 159.167 496.5 160.5 496.5 162.25C496.5 164 496.354 165.333 496.062 166.25C495.812 167.167 495.417 167.792 494.875 168.125C494.333 168.458 493.562 168.625 492.562 168.625H489V227.25C489 228.625 488.479 229.646 487.438 230.312C486.396 231.021 484.625 231.375 482.125 231.375C480.208 231.375 478.771 231.104 477.812 230.562C476.896 230.062 476.083 229.229 475.375 228.062L447.25 181.5H447V217.188H453.938C454.938 217.188 455.708 217.375 456.25 217.75C456.792 218.083 457.188 218.708 457.438 219.625C457.729 220.542 457.875 221.875 457.875 223.625C457.875 225.375 457.729 226.708 457.438 227.625C457.188 228.542 456.792 229.167 456.25 229.5C455.708 229.833 454.938 230 453.938 230H428.688C427.688 230 426.917 229.833 426.375 229.5C425.833 229.167 425.417 228.542 425.125 227.625C424.875 226.708 424.75 225.375 424.75 223.625C424.75 221.875 424.875 220.542 425.125 219.625C425.417 218.708 425.833 218.083 426.375 217.75C426.917 217.375 427.688 217.188 428.688 217.188H432.875V168.625H428.688C427.688 168.625 426.917 168.458 426.375 168.125C425.833 167.792 425.417 167.167 425.125 166.25C424.875 165.333 424.75 164 424.75 162.25C424.75 160.5 424.875 159.167 425.125 158.25C425.417 157.333 425.833 156.708 426.375 156.375C426.917 156 427.688 155.812 428.688 155.812H445.188C446.854 155.812 448.021 156.375 448.688 157.5L474.625 200.438H474.875V168.625H469.125C468.125 168.625 467.354 168.458 466.812 168.125C466.271 167.792 465.854 167.167 465.562 166.25C465.312 165.333 465.188 164 465.188 162.25C465.188 160.5 465.312 159.167 465.562 158.25C465.854 157.333 466.271 156.708 466.812 156.375C467.354 156 468.125 155.812 469.125 155.812H492.562ZM586.062 155.812C587.062 155.812 587.833 156 588.375 156.375C588.917 156.708 589.312 157.333 589.562 158.25C589.854 159.167 590 160.5 590 162.25C590 164 589.854 165.333 589.562 166.25C589.312 167.167 588.917 167.792 588.375 168.125C587.833 168.458 587.062 168.625 586.062 168.625H583.125V204.188C583.125 209.938 581.979 214.854 579.688 218.938C577.396 223.021 574.125 226.125 569.875 228.25C565.625 230.333 560.583 231.375 554.75 231.375C548.917 231.375 543.875 230.333 539.625 228.25C535.375 226.125 532.104 223.021 529.812 218.938C527.521 214.854 526.375 209.938 526.375 204.188V168.625H523.438C522.438 168.625 521.667 168.458 521.125 168.125C520.583 167.792 520.167 167.167 519.875 166.25C519.625 165.333 519.5 164 519.5 162.25C519.5 160.5 519.625 159.167 519.875 158.25C520.167 157.333 520.583 156.708 521.125 156.375C521.667 156 522.438 155.812 523.438 155.812H546.812C547.812 155.812 548.583 156 549.125 156.375C549.667 156.708 550.062 157.333 550.312 158.25C550.604 159.167 550.75 160.5 550.75 162.25C550.75 164 550.604 165.333 550.312 166.25C550.062 167.167 549.667 167.792 549.125 168.125C548.583 168.458 547.812 168.625 546.812 168.625H542V202.938C542 207.729 543.146 211.312 545.438 213.688C547.729 216.021 550.833 217.188 554.75 217.188C558.667 217.188 561.771 216.021 564.062 213.688C566.354 211.312 567.5 207.729 567.5 202.938V168.625H562.688C561.688 168.625 560.917 168.458 560.375 168.125C559.833 167.792 559.417 167.167 559.125 166.25C558.875 165.333 558.75 164 558.75 162.25C558.75 160.5 558.875 159.167 559.125 158.25C559.417 157.333 559.833 156.708 560.375 156.375C560.917 156 561.688 155.812 562.688 155.812H586.062ZM681.75 155.812C682.75 155.812 683.521 156 684.062 156.375C684.604 156.708 685 157.333 685.25 158.25C685.542 159.167 685.688 160.5 685.688 162.25C685.688 164 685.542 165.333 685.25 166.25C685 167.167 684.604 167.792 684.062 168.125C683.521 168.458 682.75 168.625 681.75 168.625H679.062L657.188 189.938C659.521 190.062 661.646 190.708 663.562 191.875C665.479 193 667.146 194.562 668.562 196.562C669.521 197.938 670.396 199.375 671.188 200.875C671.979 202.333 672.875 204.125 673.875 206.25C675.375 209.333 676.417 211.375 677 212.375C677.917 213.917 678.875 215.104 679.875 215.938C680.875 216.771 682.021 217.188 683.312 217.188H683.938C684.938 217.188 685.708 217.375 686.25 217.75C686.792 218.083 687.188 218.708 687.438 219.625C687.729 220.542 687.875 221.875 687.875 223.625C687.875 225.375 687.729 226.708 687.438 227.625C687.188 228.542 686.792 229.167 686.25 229.5C685.708 229.833 684.938 230 683.938 230H675.25C672.708 230 670.542 229.229 668.75 227.688C667 226.104 665.375 223.917 663.875 221.125C662.917 219.333 661.917 217.25 660.875 214.875C660.125 213.292 659.354 211.708 658.562 210.125C657.771 208.542 657.042 207.229 656.375 206.188C655.292 204.562 654.083 203.292 652.75 202.375C651.417 201.417 650.042 200.938 648.625 200.938C646.792 200.938 645.146 201.646 643.688 203.062L640.5 206.188V217.188H647.688C648.688 217.188 649.458 217.375 650 217.75C650.542 218.083 650.938 218.708 651.188 219.625C651.479 220.542 651.625 221.875 651.625 223.625C651.625 225.375 651.479 226.708 651.188 227.625C650.938 228.542 650.542 229.167 650 229.5C649.458 229.833 648.688 230 647.688 230H618.188C617.188 230 616.417 229.833 615.875 229.5C615.333 229.167 614.917 228.542 614.625 227.625C614.375 226.708 614.25 225.375 614.25 223.625C614.25 221.875 614.375 220.542 614.625 219.625C614.917 218.708 615.333 218.083 615.875 217.75C616.417 217.375 617.188 217.188 618.188 217.188H624.875V168.625H618.188C617.188 168.625 616.417 168.458 615.875 168.125C615.333 167.792 614.917 167.167 614.625 166.25C614.375 165.333 614.25 164 614.25 162.25C614.25 160.5 614.375 159.167 614.625 158.25C614.917 157.333 615.333 156.708 615.875 156.375C616.417 156 617.188 155.812 618.188 155.812H643.438C644.438 155.812 645.208 156 645.75 156.375C646.292 156.708 646.688 157.333 646.938 158.25C647.229 159.167 647.375 160.5 647.375 162.25C647.375 164 647.229 165.333 646.938 166.25C646.688 167.167 646.292 167.792 645.75 168.125C645.208 168.458 644.438 168.625 643.438 168.625H640.5V188.625L660.75 168.625H657.438C656.438 168.625 655.667 168.458 655.125 168.125C654.583 167.792 654.167 167.167 653.875 166.25C653.625 165.333 653.5 164 653.5 162.25C653.5 160.5 653.625 159.167 653.875 158.25C654.167 157.333 654.583 156.708 655.125 156.375C655.667 156 656.438 155.812 657.438 155.812H681.75ZM749.438 155.812C751.104 155.812 752.458 156.146 753.5 156.812C754.542 157.438 755.292 158.458 755.75 159.875L773.875 217.188H779.312C780.312 217.188 781.083 217.354 781.625 217.688C782.167 218.021 782.562 218.646 782.812 219.562C783.104 220.479 783.25 221.812 783.25 223.562C783.25 225.312 783.104 226.646 782.812 227.562C782.562 228.479 782.167 229.125 781.625 229.5C781.083 229.833 780.312 230 779.312 230H752.812C751.812 230 751.042 229.833 750.5 229.5C749.958 229.125 749.542 228.479 749.25 227.562C749 226.646 748.875 225.312 748.875 223.562C748.875 221.812 749 220.479 749.25 219.562C749.542 218.646 749.958 218.021 750.5 217.688C751.042 217.354 751.812 217.188 752.812 217.188H758.188L755.375 208.125H732.625L729.812 217.188H734.438C735.438 217.188 736.208 217.354 736.75 217.688C737.292 218.021 737.688 218.646 737.938 219.562C738.229 220.479 738.375 221.812 738.375 223.562C738.375 225.312 738.229 226.646 737.938 227.562C737.688 228.479 737.292 229.125 736.75 229.5C736.208 229.833 735.438 230 734.438 230H709.188C708.188 230 707.417 229.833 706.875 229.5C706.333 229.125 705.938 228.479 705.688 227.562C705.396 226.646 705.25 225.312 705.25 223.562C705.25 221.812 705.396 220.479 705.688 219.562C705.938 218.646 706.333 218.021 706.875 217.688C707.417 217.354 708.188 217.188 709.188 217.188H714.438L730.25 168.625H719.812C718.812 168.625 718.042 168.458 717.5 168.125C716.958 167.75 716.542 167.104 716.25 166.188C716 165.271 715.875 163.938 715.875 162.188C715.875 160.438 716 159.104 716.25 158.188C716.542 157.271 716.958 156.646 717.5 156.312C718.042 155.979 718.812 155.812 719.812 155.812H749.438ZM743.938 168.625L736.25 195.312H751.812L744.312 168.625H743.938Z" fill="#0E0C0A"/>
<path d="M232.109 271.976C232.438 271.976 232.672 272.01 232.813 272.078C232.959 272.142 233.032 272.251 233.032 272.406V273.664C233.032 273.819 232.959 273.931 232.813 273.999C232.672 274.063 232.438 274.095 232.109 274.095C231.781 274.095 231.544 274.063 231.398 273.999C231.257 273.931 231.187 273.819 231.187 273.664V272.406C231.187 272.251 231.257 272.142 231.398 272.078C231.544 272.01 231.781 271.976 232.109 271.976ZM277.688 271.976C278.016 271.976 278.25 272.01 278.392 272.078C278.537 272.142 278.61 272.251 278.61 272.406V273.664C278.61 273.819 278.537 273.931 278.392 273.999C278.25 274.063 278.016 274.095 277.688 274.095C277.359 274.095 277.122 274.063 276.977 273.999C276.835 273.931 276.765 273.819 276.765 273.664V272.406C276.765 272.251 276.835 272.142 276.977 272.078C277.122 272.01 277.359 271.976 277.688 271.976ZM323.266 271.976C323.594 271.976 323.828 272.01 323.97 272.078C324.116 272.142 324.188 272.251 324.188 272.406V273.664C324.188 273.819 324.116 273.931 323.97 273.999C323.828 274.063 323.594 274.095 323.266 274.095C322.938 274.095 322.701 274.063 322.555 273.999C322.413 273.931 322.343 273.819 322.343 273.664V272.406C322.343 272.251 322.413 272.142 322.555 272.078C322.701 272.01 322.938 271.976 323.266 271.976ZM368.844 271.976C369.172 271.976 369.407 272.01 369.548 272.078C369.694 272.142 369.767 272.251 369.767 272.406V273.664C369.767 273.819 369.694 273.931 369.548 273.999C369.407 274.063 369.172 274.095 368.844 274.095C368.516 274.095 368.279 274.063 368.133 273.999C367.992 273.931 367.921 273.819 367.921 273.664V272.406C367.921 272.251 367.992 272.142 368.133 272.078C368.279 272.01 368.516 271.976 368.844 271.976ZM414.422 271.976C414.75 271.976 414.985 272.01 415.126 272.078C415.272 272.142 415.345 272.251 415.345 272.406V273.664C415.345 273.819 415.272 273.931 415.126 273.999C414.985 274.063 414.75 274.095 414.422 274.095C414.094 274.095 413.857 274.063 413.711 273.999C413.57 273.931 413.499 273.819 413.499 273.664V272.406C413.499 272.251 413.57 272.142 413.711 272.078C413.857 272.01 414.094 271.976 414.422 271.976ZM460 271.976C460.328 271.976 460.563 272.01 460.704 272.078C460.85 272.142 460.923 272.251 460.923 272.406V273.664C460.923 273.819 460.85 273.931 460.704 273.999C460.563 274.063 460.328 274.095 460 274.095C459.672 274.095 459.435 274.063 459.289 273.999C459.148 273.931 459.077 273.819 459.077 273.664V272.406C459.077 272.251 459.148 272.142 459.289 272.078C459.435 272.01 459.672 271.976 460 271.976ZM505.578 271.976C505.906 271.976 506.141 272.01 506.282 272.078C506.428 272.142 506.501 272.251 506.501 272.406V273.664C506.501 273.819 506.428 273.931 506.282 273.999C506.141 274.063 505.906 274.095 505.578 274.095C505.25 274.095 505.013 274.063 504.867 273.999C504.726 273.931 504.655 273.819 504.655 273.664V272.406C504.655 272.251 504.726 272.142 504.867 272.078C505.013 272.01 505.25 271.976 505.578 271.976ZM551.156 271.976C551.484 271.976 551.719 272.01 551.86 272.078C552.006 272.142 552.079 272.251 552.079 272.406V273.664C552.079 273.819 552.006 273.931 551.86 273.999C551.719 274.063 551.484 274.095 551.156 274.095C550.828 274.095 550.591 274.063 550.445 273.999C550.304 273.931 550.233 273.819 550.233 273.664V272.406C550.233 272.251 550.304 272.142 550.445 272.078C550.591 272.01 550.828 271.976 551.156 271.976ZM596.734 271.976C597.062 271.976 597.297 272.01 597.438 272.078C597.584 272.142 597.657 272.251 597.657 272.406V273.664C597.657 273.819 597.584 273.931 597.438 273.999C597.297 274.063 597.062 274.095 596.734 274.095C596.406 274.095 596.169 274.063 596.023 273.999C595.882 273.931 595.812 273.819 595.812 273.664V272.406C595.812 272.251 595.882 272.142 596.023 272.078C596.169 272.01 596.406 271.976 596.734 271.976ZM642.312 271.976C642.641 271.976 642.875 272.01 643.017 272.078C643.162 272.142 643.235 272.251 643.235 272.406V273.664C643.235 273.819 643.162 273.931 643.017 273.999C642.875 274.063 642.641 274.095 642.312 274.095C641.984 274.095 641.747 274.063 641.602 273.999C641.46 273.931 641.39 273.819 641.39 273.664V272.406C641.39 272.251 641.46 272.142 641.602 272.078C641.747 272.01 641.984 271.976 642.312 271.976ZM687.891 271.976C688.219 271.976 688.453 272.01 688.595 272.078C688.741 272.142 688.813 272.251 688.813 272.406V273.664C688.813 273.819 688.741 273.931 688.595 273.999C688.453 274.063 688.219 274.095 687.891 274.095C687.562 274.095 687.326 274.063 687.18 273.999C687.038 273.931 686.968 273.819 686.968 273.664V272.406C686.968 272.251 687.038 272.142 687.18 272.078C687.326 272.01 687.562 271.976 687.891 271.976Z" fill="#0E0C0A"/>
<path d="M151.934 300.09C152.121 300.09 152.266 300.125 152.367 300.195C152.469 300.258 152.543 300.375 152.59 300.547C152.645 300.719 152.672 300.969 152.672 301.297C152.672 301.625 152.645 301.875 152.59 302.047C152.543 302.219 152.469 302.336 152.367 302.398C152.266 302.461 152.121 302.492 151.934 302.492H149.168V311.598H152.168C152.355 311.598 152.5 311.633 152.602 311.703C152.703 311.766 152.777 311.883 152.824 312.055C152.879 312.227 152.906 312.477 152.906 312.805C152.906 313.133 152.879 313.383 152.824 313.555C152.777 313.727 152.703 313.844 152.602 313.906C152.5 313.969 152.355 314 152.168 314H143.238C143.051 314 142.906 313.969 142.805 313.906C142.703 313.844 142.625 313.727 142.57 313.555C142.523 313.383 142.5 313.133 142.5 312.805C142.5 312.477 142.523 312.227 142.57 312.055C142.625 311.883 142.703 311.766 142.805 311.703C142.906 311.633 143.051 311.598 143.238 311.598H146.238V302.492H143.473C143.285 302.492 143.141 302.461 143.039 302.398C142.938 302.336 142.859 302.219 142.805 302.047C142.758 301.875 142.734 301.625 142.734 301.297C142.734 300.969 142.758 300.719 142.805 300.547C142.859 300.375 142.938 300.258 143.039 300.195C143.141 300.125 143.285 300.09 143.473 300.09H151.934ZM210.59 300.09C210.777 300.09 210.922 300.125 211.023 300.195C211.125 300.258 211.199 300.375 211.246 300.547C211.301 300.719 211.328 300.969 211.328 301.297C211.328 301.625 211.301 301.875 211.246 302.047C211.199 302.219 211.125 302.336 211.023 302.398C210.922 302.461 210.777 302.492 210.59 302.492H209.922V313.484C209.922 313.742 209.824 313.934 209.629 314.059C209.434 314.191 209.102 314.258 208.633 314.258C208.273 314.258 208.004 314.207 207.824 314.105C207.652 314.012 207.5 313.855 207.367 313.637L202.094 304.906H202.047V311.598H203.348C203.535 311.598 203.68 311.633 203.781 311.703C203.883 311.766 203.957 311.883 204.004 312.055C204.059 312.227 204.086 312.477 204.086 312.805C204.086 313.133 204.059 313.383 204.004 313.555C203.957 313.727 203.883 313.844 203.781 313.906C203.68 313.969 203.535 314 203.348 314H198.613C198.426 314 198.281 313.969 198.18 313.906C198.078 313.844 198 313.727 197.945 313.555C197.898 313.383 197.875 313.133 197.875 312.805C197.875 312.477 197.898 312.227 197.945 312.055C198 311.883 198.078 311.766 198.18 311.703C198.281 311.633 198.426 311.598 198.613 311.598H199.398V302.492H198.613C198.426 302.492 198.281 302.461 198.18 302.398C198.078 302.336 198 302.219 197.945 302.047C197.898 301.875 197.875 301.625 197.875 301.297C197.875 300.969 197.898 300.719 197.945 300.547C198 300.375 198.078 300.258 198.18 300.195C198.281 300.125 198.426 300.09 198.613 300.09H201.707C202.02 300.09 202.238 300.195 202.363 300.406L207.227 308.457H207.273V302.492H206.195C206.008 302.492 205.863 302.461 205.762 302.398C205.66 302.336 205.582 302.219 205.527 302.047C205.48 301.875 205.457 301.625 205.457 301.297C205.457 300.969 205.48 300.719 205.527 300.547C205.582 300.375 205.66 300.258 205.762 300.195C205.863 300.125 206.008 300.09 206.195 300.09H210.59ZM265.859 299.832C266.344 299.832 266.676 299.887 266.855 299.996C267.035 300.105 267.125 300.297 267.125 300.57V305.07C267.125 305.336 267.004 305.527 266.762 305.645C266.527 305.754 266.133 305.809 265.578 305.809C265.211 305.809 264.926 305.785 264.723 305.738C264.527 305.684 264.391 305.605 264.312 305.504C264.234 305.402 264.195 305.258 264.195 305.07C264.195 304.289 263.98 303.664 263.551 303.195C263.129 302.727 262.523 302.492 261.734 302.492C260.648 302.492 259.824 302.883 259.262 303.664C258.699 304.445 258.418 305.57 258.418 307.039C258.418 308.492 258.715 309.617 259.309 310.414C259.91 311.203 260.758 311.598 261.852 311.598C262.531 311.598 263.184 311.508 263.809 311.328C264.434 311.141 265.113 310.859 265.848 310.484C265.973 310.422 266.09 310.391 266.199 310.391C266.566 310.391 266.871 310.715 267.113 311.363C267.223 311.66 267.277 311.926 267.277 312.16C267.277 312.559 267.098 312.844 266.738 313.016C265.066 313.844 263.398 314.258 261.734 314.258C260.453 314.258 259.324 313.965 258.348 313.379C257.371 312.793 256.613 311.957 256.074 310.871C255.543 309.777 255.277 308.5 255.277 307.039C255.277 305.586 255.539 304.316 256.062 303.23C256.586 302.137 257.309 301.297 258.23 300.711C259.16 300.125 260.211 299.832 261.383 299.832C262.75 299.832 263.766 300.324 264.43 301.309V300.57C264.43 300.305 264.543 300.117 264.77 300.008C264.996 299.891 265.359 299.832 265.859 299.832ZM318.047 299.832C319.328 299.832 320.457 300.125 321.434 300.711C322.41 301.289 323.164 302.125 323.695 303.219C324.234 304.305 324.504 305.578 324.504 307.039C324.504 308.5 324.234 309.777 323.695 310.871C323.164 311.957 322.41 312.793 321.434 313.379C320.457 313.965 319.328 314.258 318.047 314.258C316.766 314.258 315.637 313.965 314.66 313.379C313.684 312.793 312.926 311.957 312.387 310.871C311.855 309.777 311.59 308.5 311.59 307.039C311.59 305.578 311.855 304.305 312.387 303.219C312.926 302.125 313.684 301.289 314.66 300.711C315.637 300.125 316.766 299.832 318.047 299.832ZM318.047 302.492C316.961 302.492 316.137 302.883 315.574 303.664C315.012 304.445 314.73 305.57 314.73 307.039C314.73 308.508 315.012 309.637 315.574 310.426C316.137 311.207 316.961 311.598 318.047 311.598C319.133 311.598 319.957 311.207 320.52 310.426C321.082 309.637 321.363 308.508 321.363 307.039C321.363 305.57 321.082 304.445 320.52 303.664C319.957 302.883 319.133 302.492 318.047 302.492ZM375.25 300.09C376.898 300.09 378.164 300.453 379.047 301.18C379.93 301.906 380.371 302.961 380.371 304.344C380.371 306.148 379.402 307.285 377.465 307.754C377.887 307.918 378.223 308.16 378.473 308.48C378.637 308.691 378.785 308.914 378.918 309.148C379.059 309.375 379.219 309.664 379.398 310.016C379.586 310.391 379.73 310.66 379.832 310.824C379.988 311.082 380.145 311.277 380.301 311.41C380.457 311.535 380.633 311.598 380.828 311.598H381.051C381.238 311.598 381.383 311.633 381.484 311.703C381.586 311.766 381.66 311.883 381.707 312.055C381.762 312.227 381.789 312.477 381.789 312.805C381.789 313.133 381.762 313.383 381.707 313.555C381.66 313.727 381.586 313.844 381.484 313.906C381.383 313.969 381.238 314 381.051 314H379.914C379.297 314 378.797 313.875 378.414 313.625C378.031 313.375 377.68 312.957 377.359 312.371C377.203 312.098 377.016 311.723 376.797 311.246C376.641 310.887 376.492 310.578 376.352 310.32C376.211 310.055 376.055 309.797 375.883 309.547C375.641 309.211 375.371 308.969 375.074 308.82C374.777 308.672 374.422 308.598 374.008 308.598H373.258V311.598H374.395C374.582 311.598 374.727 311.633 374.828 311.703C374.93 311.766 375.004 311.883 375.051 312.055C375.105 312.227 375.133 312.477 375.133 312.805C375.133 313.133 375.105 313.383 375.051 313.555C375.004 313.727 374.93 313.844 374.828 313.906C374.727 313.969 374.582 314 374.395 314H369.074C368.887 314 368.742 313.969 368.641 313.906C368.539 313.844 368.461 313.727 368.406 313.555C368.359 313.383 368.336 313.133 368.336 312.805C368.336 312.477 368.359 312.227 368.406 312.055C368.461 311.883 368.539 311.766 368.641 311.703C368.742 311.633 368.887 311.598 369.074 311.598H370.328V302.492H369.074C368.887 302.492 368.742 302.461 368.641 302.398C368.539 302.336 368.461 302.219 368.406 302.047C368.359 301.875 368.336 301.625 368.336 301.297C368.336 300.969 368.359 300.719 368.406 300.547C368.461 300.375 368.539 300.258 368.641 300.195C368.742 300.125 368.887 300.09 369.074 300.09H375.25ZM373.258 306.078H375.004C375.801 306.078 376.391 305.938 376.773 305.656C377.156 305.367 377.348 304.93 377.348 304.344C377.348 303.758 377.156 303.324 376.773 303.043C376.391 302.754 375.801 302.609 375.004 302.609H373.258V306.078ZM432.266 300.09C434.062 300.09 435.422 300.496 436.344 301.309C437.273 302.113 437.738 303.277 437.738 304.801C437.738 306.324 437.273 307.492 436.344 308.305C435.422 309.117 434.062 309.523 432.266 309.523H430.508V311.598H433.051C433.238 311.598 433.383 311.633 433.484 311.703C433.586 311.766 433.66 311.883 433.707 312.055C433.762 312.227 433.789 312.477 433.789 312.805C433.789 313.133 433.762 313.383 433.707 313.555C433.66 313.727 433.586 313.844 433.484 313.906C433.383 313.969 433.238 314 433.051 314H425.855C425.668 314 425.523 313.969 425.422 313.906C425.32 313.844 425.242 313.727 425.188 313.555C425.141 313.383 425.117 313.133 425.117 312.805C425.117 312.477 425.141 312.227 425.188 312.055C425.242 311.883 425.32 311.766 425.422 311.703C425.523 311.633 425.668 311.598 425.855 311.598H427.578V302.492H425.855C425.668 302.492 425.523 302.461 425.422 302.398C425.32 302.336 425.242 302.219 425.188 302.047C425.141 301.875 425.117 301.625 425.117 301.297C425.117 300.969 425.141 300.719 425.188 300.547C425.242 300.375 425.32 300.258 425.422 300.195C425.523 300.125 425.668 300.09 425.855 300.09H432.266ZM430.508 307.004H431.902C432.832 307.004 433.531 306.824 434 306.465C434.477 306.105 434.715 305.551 434.715 304.801C434.715 304.051 434.477 303.5 434 303.148C433.531 302.789 432.832 302.609 431.902 302.609H430.508V307.004ZM488.391 299.832C489.672 299.832 490.801 300.125 491.777 300.711C492.754 301.289 493.508 302.125 494.039 303.219C494.578 304.305 494.848 305.578 494.848 307.039C494.848 308.5 494.578 309.777 494.039 310.871C493.508 311.957 492.754 312.793 491.777 313.379C490.801 313.965 489.672 314.258 488.391 314.258C487.109 314.258 485.98 313.965 485.004 313.379C484.027 312.793 483.27 311.957 482.73 310.871C482.199 309.777 481.934 308.5 481.934 307.039C481.934 305.578 482.199 304.305 482.73 303.219C483.27 302.125 484.027 301.289 485.004 300.711C485.98 300.125 487.109 299.832 488.391 299.832ZM488.391 302.492C487.305 302.492 486.48 302.883 485.918 303.664C485.355 304.445 485.074 305.57 485.074 307.039C485.074 308.508 485.355 309.637 485.918 310.426C486.48 311.207 487.305 311.598 488.391 311.598C489.477 311.598 490.301 311.207 490.863 310.426C491.426 309.637 491.707 308.508 491.707 307.039C491.707 305.57 491.426 304.445 490.863 303.664C490.301 302.883 489.477 302.492 488.391 302.492ZM545.594 300.09C547.242 300.09 548.508 300.453 549.391 301.18C550.273 301.906 550.715 302.961 550.715 304.344C550.715 306.148 549.746 307.285 547.809 307.754C548.23 307.918 548.566 308.16 548.816 308.48C548.98 308.691 549.129 308.914 549.262 309.148C549.402 309.375 549.562 309.664 549.742 310.016C549.93 310.391 550.074 310.66 550.176 310.824C550.332 311.082 550.488 311.277 550.645 311.41C550.801 311.535 550.977 311.598 551.172 311.598H551.395C551.582 311.598 551.727 311.633 551.828 311.703C551.93 311.766 552.004 311.883 552.051 312.055C552.105 312.227 552.133 312.477 552.133 312.805C552.133 313.133 552.105 313.383 552.051 313.555C552.004 313.727 551.93 313.844 551.828 313.906C551.727 313.969 551.582 314 551.395 314H550.258C549.641 314 549.141 313.875 548.758 313.625C548.375 313.375 548.023 312.957 547.703 312.371C547.547 312.098 547.359 311.723 547.141 311.246C546.984 310.887 546.836 310.578 546.695 310.32C546.555 310.055 546.398 309.797 546.227 309.547C545.984 309.211 545.715 308.969 545.418 308.82C545.121 308.672 544.766 308.598 544.352 308.598H543.602V311.598H544.738C544.926 311.598 545.07 311.633 545.172 311.703C545.273 311.766 545.348 311.883 545.395 312.055C545.449 312.227 545.477 312.477 545.477 312.805C545.477 313.133 545.449 313.383 545.395 313.555C545.348 313.727 545.273 313.844 545.172 313.906C545.07 313.969 544.926 314 544.738 314H539.418C539.23 314 539.086 313.969 538.984 313.906C538.883 313.844 538.805 313.727 538.75 313.555C538.703 313.383 538.68 313.133 538.68 312.805C538.68 312.477 538.703 312.227 538.75 312.055C538.805 311.883 538.883 311.766 538.984 311.703C539.086 311.633 539.23 311.598 539.418 311.598H540.672V302.492H539.418C539.23 302.492 539.086 302.461 538.984 302.398C538.883 302.336 538.805 302.219 538.75 302.047C538.703 301.875 538.68 301.625 538.68 301.297C538.68 300.969 538.703 300.719 538.75 300.547C538.805 300.375 538.883 300.258 538.984 300.195C539.086 300.125 539.23 300.09 539.418 300.09H545.594ZM543.602 306.078H545.348C546.145 306.078 546.734 305.938 547.117 305.656C547.5 305.367 547.691 304.93 547.691 304.344C547.691 303.758 547.5 303.324 547.117 303.043C546.734 302.754 546.145 302.609 545.348 302.609H543.602V306.078ZM602.926 300.09C603.238 300.09 603.492 300.152 603.688 300.277C603.883 300.395 604.023 300.586 604.109 300.852L607.508 311.598H608.527C608.715 311.598 608.859 311.629 608.961 311.691C609.062 311.754 609.137 311.871 609.184 312.043C609.238 312.215 609.266 312.465 609.266 312.793C609.266 313.121 609.238 313.371 609.184 313.543C609.137 313.715 609.062 313.836 608.961 313.906C608.859 313.969 608.715 314 608.527 314H603.559C603.371 314 603.227 313.969 603.125 313.906C603.023 313.836 602.945 313.715 602.891 313.543C602.844 313.371 602.82 313.121 602.82 312.793C602.82 312.465 602.844 312.215 602.891 312.043C602.945 311.871 603.023 311.754 603.125 311.691C603.227 311.629 603.371 311.598 603.559 311.598H604.566L604.039 309.898H599.773L599.246 311.598H600.113C600.301 311.598 600.445 311.629 600.547 311.691C600.648 311.754 600.723 311.871 600.77 312.043C600.824 312.215 600.852 312.465 600.852 312.793C600.852 313.121 600.824 313.371 600.77 313.543C600.723 313.715 600.648 313.836 600.547 313.906C600.445 313.969 600.301 314 600.113 314H595.379C595.191 314 595.047 313.969 594.945 313.906C594.844 313.836 594.77 313.715 594.723 313.543C594.668 313.371 594.641 313.121 594.641 312.793C594.641 312.465 594.668 312.215 594.723 312.043C594.77 311.871 594.844 311.754 594.945 311.691C595.047 311.629 595.191 311.598 595.379 311.598H596.363L599.328 302.492H597.371C597.184 302.492 597.039 302.461 596.938 302.398C596.836 302.328 596.758 302.207 596.703 302.035C596.656 301.863 596.633 301.613 596.633 301.285C596.633 300.957 596.656 300.707 596.703 300.535C596.758 300.363 596.836 300.246 596.938 300.184C597.039 300.121 597.184 300.09 597.371 300.09H602.926ZM601.895 302.492L600.453 307.496H603.371L601.965 302.492H601.895ZM664.02 300.09C664.293 300.09 664.488 300.148 664.605 300.266C664.723 300.383 664.781 300.578 664.781 300.852V305.797C664.781 306.055 664.672 306.242 664.453 306.359C664.242 306.477 663.914 306.535 663.469 306.535C663.039 306.535 662.738 306.48 662.566 306.371C662.402 306.254 662.32 306.062 662.32 305.797V302.609H660.199V311.598H662.73C662.918 311.598 663.062 311.633 663.164 311.703C663.266 311.766 663.34 311.883 663.387 312.055C663.441 312.227 663.469 312.477 663.469 312.805C663.469 313.133 663.441 313.383 663.387 313.555C663.34 313.727 663.266 313.844 663.164 313.906C663.062 313.969 662.918 314 662.73 314H654.738C654.551 314 654.406 313.969 654.305 313.906C654.203 313.844 654.125 313.727 654.07 313.555C654.023 313.383 654 313.133 654 312.805C654 312.477 654.023 312.227 654.07 312.055C654.125 311.883 654.203 311.766 654.305 311.703C654.406 311.633 654.551 311.598 654.738 311.598H657.27V302.609H655.148V305.797C655.148 306.055 655.039 306.242 654.82 306.359C654.609 306.477 654.281 306.535 653.836 306.535C653.406 306.535 653.105 306.48 652.934 306.371C652.77 306.254 652.688 306.062 652.688 305.797V300.852C652.688 300.578 652.746 300.383 652.863 300.266C652.988 300.148 653.184 300.09 653.449 300.09H664.02ZM720.449 300.09C720.723 300.09 720.918 300.148 721.035 300.266C721.152 300.383 721.211 300.578 721.211 300.852V304.391C721.211 304.656 721.098 304.848 720.871 304.965C720.645 305.074 720.281 305.129 719.781 305.129C719.297 305.129 718.965 305.074 718.785 304.965C718.605 304.855 718.516 304.664 718.516 304.391V302.609H713.828V305.574H716.688C716.961 305.574 717.152 305.664 717.262 305.844C717.371 306.023 717.426 306.355 717.426 306.84C717.426 307.324 717.371 307.656 717.262 307.836C717.152 308.008 716.961 308.094 716.688 308.094H713.828V311.48H718.633V309.113C718.633 308.848 718.746 308.66 718.973 308.551C719.207 308.434 719.586 308.375 720.109 308.375C720.625 308.375 720.977 308.43 721.164 308.539C721.352 308.648 721.445 308.84 721.445 309.113V313.238C721.445 313.504 721.387 313.699 721.27 313.824C721.152 313.941 720.957 314 720.684 314H709.762C709.574 314 709.43 313.969 709.328 313.906C709.227 313.844 709.148 313.727 709.094 313.555C709.047 313.383 709.023 313.133 709.023 312.805C709.023 312.477 709.047 312.227 709.094 312.055C709.148 311.883 709.227 311.766 709.328 311.703C709.43 311.633 709.574 311.598 709.762 311.598H710.898V302.492H709.762C709.574 302.492 709.43 302.461 709.328 302.398C709.227 302.336 709.148 302.219 709.094 302.047C709.047 301.875 709.023 301.625 709.023 301.297C709.023 300.969 709.047 300.719 709.094 300.547C709.148 300.375 709.227 300.258 709.328 300.195C709.43 300.125 709.574 300.09 709.762 300.09H720.449ZM772.062 300.09C773.43 300.09 774.605 300.359 775.59 300.898C776.574 301.438 777.328 302.23 777.852 303.277C778.375 304.316 778.637 305.57 778.637 307.039C778.637 308.508 778.375 309.766 777.852 310.812C777.328 311.852 776.574 312.645 775.59 313.191C774.605 313.73 773.43 314 772.062 314H766.543C766.355 314 766.211 313.969 766.109 313.906C766.008 313.844 765.93 313.727 765.875 313.555C765.828 313.383 765.805 313.133 765.805 312.805C765.805 312.477 765.828 312.227 765.875 312.055C765.93 311.883 766.008 311.766 766.109 311.703C766.211 311.633 766.355 311.598 766.543 311.598H767.68V302.492H766.543C766.355 302.492 766.211 302.461 766.109 302.398C766.008 302.336 765.93 302.219 765.875 302.047C765.828 301.875 765.805 301.625 765.805 301.297C765.805 300.969 765.828 300.719 765.875 300.547C765.93 300.375 766.008 300.258 766.109 300.195C766.211 300.125 766.355 300.09 766.543 300.09H772.062ZM770.609 311.48H771.828C773.039 311.48 773.953 311.105 774.57 310.355C775.188 309.598 775.496 308.492 775.496 307.039C775.496 305.586 775.188 304.484 774.57 303.734C773.953 302.984 773.039 302.609 771.828 302.609H770.609V311.48Z" fill="#0E0C0A"/>
<rect x="58" y="343" width="804" height="5" fill="#0E0C0A"/>
<rect x="58" y="351" width="804" height="1" fill="#0E0C0A"/>
</svg>
